# Blender v2.79 (sub 0) OBJ File: 'Bench.blend'
# www.blender.org
mtllib Bench_blend.mtl
o Bench_02
v 0.773639 0.429549 -0.054395
v 0.773639 0.393549 -0.054395
v 0.773639 0.429549 0.054395
v 0.773639 0.393549 0.054395
v 0.773639 0.393549 -0.070847
v 0.773639 0.429549 -0.070847
v 0.773639 0.393550 -0.179636
v 0.773639 0.429549 -0.179636
v 0.773639 0.429549 0.072792
v 0.773639 0.393549 0.072792
v 0.773639 0.429549 0.181582
v 0.773639 0.393549 0.181582
v 0.676641 0.393550 -0.163853
v 0.676641 0.393549 0.163853
v 0.615832 0.393550 -0.163853
v 0.615832 0.393549 0.163853
v 0.621301 0.342021 0.148556
v 0.671172 0.342021 0.148556
v 0.671172 0.342021 -0.148556
v 0.621301 0.342021 -0.148556
v 0.671172 0.342021 0.091478
v 0.671172 0.342021 -0.091478
v 0.621301 0.342021 -0.091478
v 0.621301 0.342021 0.091478
v 0.621301 -0.000797 0.148556
v 0.671172 -0.000797 0.148556
v 0.671172 -0.000797 -0.091478
v 0.671172 -0.000797 -0.148556
v 0.621301 -0.000797 -0.148556
v 0.621301 -0.000797 0.091478
v 0.671172 -0.000797 0.091478
v 0.621301 -0.000797 -0.091478
v 0.666070 0.128260 0.091478
v 0.626403 0.128260 0.091478
v 0.626403 0.092911 0.091478
v 0.666070 0.092911 0.091478
v 0.666070 0.128260 -0.091478
v 0.626403 0.128260 -0.091478
v 0.666070 0.092911 -0.091478
v 0.626403 0.092911 -0.091478
v 0.627498 0.125000 0.011460
v 0.627498 0.097764 0.011460
v 0.627498 0.125000 -0.021577
v 0.627498 0.097764 -0.021577
v 0.615832 0.342481 0.153944
v 0.615832 0.352390 0.163853
v 0.615832 0.343809 0.158898
v 0.615832 0.347436 0.162525
v 0.676641 0.352390 0.163853
v 0.676641 0.342481 0.153944
v 0.676641 0.347436 0.162525
v 0.676641 0.343809 0.158898
v 0.676641 0.342481 -0.153944
v 0.676641 0.352390 -0.163853
v 0.676641 0.343809 -0.158898
v 0.676641 0.347436 -0.162525
v 0.615832 0.352390 -0.163853
v 0.615832 0.342481 -0.153944
v 0.615832 0.347436 -0.162525
v 0.615832 0.343809 -0.158898
v -0.773639 0.429549 -0.054395
v -0.773639 0.393549 -0.054395
v -0.773639 0.429549 0.054395
v -0.773639 0.393549 0.054395
v -0.773639 0.393549 -0.070847
v -0.773639 0.429549 -0.070847
v -0.773639 0.393550 -0.179636
v -0.773639 0.429549 -0.179636
v -0.773639 0.429549 0.072792
v -0.773639 0.393549 0.072792
v -0.773639 0.429549 0.181582
v -0.773639 0.393549 0.181582
v -0.676641 0.393550 -0.163853
v -0.676641 0.393549 0.163853
v -0.615832 0.393550 -0.163853
v -0.615832 0.393549 0.163853
v -0.621301 0.342021 0.148556
v -0.671172 0.342021 0.148556
v -0.671172 0.342021 -0.148556
v -0.621301 0.342021 -0.148556
v -0.671172 0.342021 0.091478
v -0.671172 0.342021 -0.091478
v -0.621301 0.342021 -0.091478
v -0.621301 0.342021 0.091478
v -0.621301 -0.000797 0.148556
v -0.671172 -0.000797 0.148556
v -0.671172 -0.000797 -0.091478
v -0.671172 -0.000797 -0.148556
v -0.621301 -0.000797 -0.148556
v -0.621301 -0.000797 0.091478
v -0.671172 -0.000797 0.091478
v -0.621301 -0.000797 -0.091478
v -0.666070 0.128260 0.091478
v -0.626403 0.128260 0.091478
v -0.626403 0.092911 0.091478
v -0.666070 0.092911 0.091478
v -0.666070 0.128260 -0.091478
v -0.626403 0.128260 -0.091478
v -0.666070 0.092911 -0.091478
v -0.626403 0.092911 -0.091478
v -0.627498 0.125000 0.011460
v -0.627498 0.097764 0.011460
v -0.627498 0.125000 -0.021577
v -0.627498 0.097764 -0.021577
v -0.615832 0.342481 0.153944
v -0.615832 0.352390 0.163853
v -0.615832 0.343809 0.158898
v -0.615832 0.347436 0.162525
v -0.676641 0.352390 0.163853
v -0.676641 0.342481 0.153944
v -0.676641 0.347436 0.162525
v -0.676641 0.343809 0.158898
v -0.676641 0.342481 -0.153944
v -0.676641 0.352390 -0.163853
v -0.676641 0.343809 -0.158898
v -0.676641 0.347436 -0.162525
v -0.615832 0.352390 -0.163853
v -0.615832 0.342481 -0.153944
v -0.615832 0.347436 -0.162525
v -0.615832 0.343809 -0.158898
vt 0.002896 0.526349
vt 0.961543 0.526349
vt 0.961543 0.548654
vt 0.002896 0.548654
vt 0.768338 0.859917
vt 0.768338 0.882222
vt 0.700936 0.882222
vt 0.700936 0.859917
vt 0.002896 0.295673
vt 0.961543 0.295673
vt 0.961543 0.363075
vt 0.002896 0.363075
vt 0.002896 0.070298
vt 0.002896 0.002896
vt 0.961544 0.002896
vt 0.961544 0.070298
vt 0.002896 0.143493
vt 0.002896 0.076090
vt 0.961543 0.076090
vt 0.961543 0.143493
vt 0.980494 0.836305
vt 0.980494 0.858610
vt 0.913091 0.858610
vt 0.913091 0.836305
vt 0.002896 0.222478
vt 0.961543 0.222478
vt 0.961543 0.289881
vt 0.002896 0.289881
vt 0.002896 0.582542
vt 0.961543 0.582542
vt 0.961543 0.604846
vt 0.002896 0.604846
vt 0.002896 0.554446
vt 0.961545 0.554446
vt 0.961545 0.576750
vt 0.002896 0.576750
vt 0.002896 0.149284
vt 0.961543 0.149284
vt 0.961543 0.216687
vt 0.002896 0.216687
vt 0.002896 0.436269
vt 0.002896 0.368867
vt 0.961544 0.368867
vt 0.961544 0.436269
vt 0.002896 0.470157
vt 0.961543 0.470157
vt 0.961543 0.492461
vt 0.002896 0.492461
vt 0.002896 0.442061
vt 0.961545 0.442061
vt 0.961545 0.464365
vt 0.002896 0.464365
vt 0.980494 0.864401
vt 0.980494 0.886706
vt 0.913091 0.886706
vt 0.913091 0.864401
vt 0.869625 0.892100
vt 0.869625 0.689063
vt 0.907300 0.689063
vt 0.907300 0.892100
vt 0.985394 0.659660
vt 0.782358 0.659660
vt 0.782357 0.634159
vt 0.783180 0.631090
vt 0.785427 0.628842
vt 0.788497 0.628020
vt 0.979255 0.628020
vt 0.982324 0.628842
vt 0.984572 0.631090
vt 0.985394 0.634159
vt 0.863833 0.914703
vt 0.825992 0.914703
vt 0.825992 0.723101
vt 0.863833 0.723101
vt 0.433486 0.953291
vt 0.230450 0.953291
vt 0.230450 0.927790
vt 0.231272 0.924720
vt 0.233520 0.922473
vt 0.236589 0.921650
vt 0.427347 0.921650
vt 0.430417 0.922473
vt 0.432664 0.924720
vt 0.433486 0.927790
vt 0.863833 0.948741
vt 0.825992 0.948741
vt 0.825992 0.923127
vt 0.863833 0.923127
vt 0.386026 0.994446
vt 0.349596 0.994446
vt 0.349596 0.959082
vt 0.386026 0.959082
vt 0.475708 0.997104
vt 0.439278 0.997104
vt 0.439278 0.961740
vt 0.475708 0.961740
vt 0.439278 0.914793
vt 0.439278 0.879429
vt 0.651677 0.879429
vt 0.651677 0.914793
vt 0.002896 0.874703
vt 0.002896 0.839339
vt 0.215296 0.839339
vt 0.215296 0.874703
vt 0.002896 0.833548
vt 0.002896 0.797118
vt 0.215295 0.797118
vt 0.215295 0.833548
vt 0.002896 0.915859
vt 0.002896 0.880495
vt 0.215295 0.880495
vt 0.215295 0.915859
vt 0.439278 0.832482
vt 0.439278 0.797118
vt 0.651677 0.797118
vt 0.651677 0.832482
vt 0.002896 0.749105
vt 0.002896 0.712675
vt 0.215295 0.712675
vt 0.215295 0.749105
vt 0.221087 0.749105
vt 0.221087 0.712675
vt 0.433486 0.712675
vt 0.433486 0.749105
vt 0.439278 0.749105
vt 0.439278 0.712675
vt 0.651677 0.712675
vt 0.651677 0.749105
vt 0.722837 0.826029
vt 0.700936 0.826029
vt 0.700936 0.712675
vt 0.722837 0.712675
vt 0.230450 0.988058
vt 0.230450 0.959082
vt 0.343804 0.959082
vt 0.343804 0.988058
vt 0.913091 0.689063
vt 0.934993 0.689063
vt 0.934993 0.802417
vt 0.913091 0.802417
vt 0.657469 0.950479
vt 0.657469 0.921503
vt 0.770823 0.921503
vt 0.770823 0.950479
vt 0.002896 0.638045
vt 0.776566 0.638045
vt 0.776566 0.659660
vt 0.002896 0.659660
vt 0.776567 0.683272
vt 0.002896 0.683272
vt 0.002896 0.665452
vt 0.776567 0.665452
vt 0.776565 0.632253
vt 0.002896 0.632253
vt 0.002896 0.610638
vt 0.776565 0.610638
vt 0.825992 0.720018
vt 0.863833 0.720018
vt 0.825992 0.717761
vt 0.863833 0.717761
vt 0.825992 0.714677
vt 0.863833 0.714677
vt 0.863833 0.917787
vt 0.825992 0.917787
vt 0.863833 0.920044
vt 0.825992 0.920044
vt 0.825992 0.689063
vt 0.863833 0.689063
vt 0.700936 0.888013
vt 0.768338 0.888013
vt 0.768338 0.910318
vt 0.700936 0.910318
vt 0.700936 0.831821
vt 0.768338 0.831821
vt 0.768338 0.854125
vt 0.700936 0.854125
vt 0.913091 0.808209
vt 0.980494 0.808209
vt 0.980494 0.830514
vt 0.913091 0.830514
vt 0.695144 0.915712
vt 0.657469 0.915712
vt 0.657469 0.712675
vt 0.695144 0.712675
vt 0.230449 0.870979
vt 0.230449 0.845479
vt 0.231272 0.842409
vt 0.233519 0.840162
vt 0.236588 0.839339
vt 0.427347 0.839339
vt 0.430416 0.840162
vt 0.432664 0.842409
vt 0.433486 0.845479
vt 0.433486 0.870980
vt 0.782358 0.914705
vt 0.782358 0.723101
vt 0.820200 0.723101
vt 0.820200 0.914705
vt 0.782358 0.986174
vt 0.782358 0.960673
vt 0.783181 0.957604
vt 0.785428 0.955356
vt 0.788498 0.954534
vt 0.979256 0.954534
vt 0.982325 0.955356
vt 0.984572 0.957604
vt 0.985395 0.960673
vt 0.985395 0.986174
vt 0.782358 0.948742
vt 0.782358 0.923128
vt 0.820200 0.923128
vt 0.820200 0.948742
vt 0.391817 0.994446
vt 0.391817 0.959082
vt 0.428247 0.959082
vt 0.428247 0.994446
vt 0.481499 0.997104
vt 0.481499 0.961740
vt 0.517929 0.961740
vt 0.517929 0.997104
vt 0.221088 0.880495
vt 0.433487 0.880495
vt 0.433487 0.915859
vt 0.221087 0.915859
vt 0.439278 0.920585
vt 0.651677 0.920585
vt 0.651677 0.955949
vt 0.439278 0.955949
vt 0.439278 0.754896
vt 0.651677 0.754896
vt 0.651677 0.791326
vt 0.439278 0.791326
vt 0.439278 0.838274
vt 0.651677 0.838274
vt 0.651677 0.873638
vt 0.439278 0.873638
vt 0.002896 0.921650
vt 0.215296 0.921650
vt 0.215296 0.957014
vt 0.002896 0.957014
vt 0.221087 0.754896
vt 0.433486 0.754896
vt 0.433486 0.791326
vt 0.221087 0.791326
vt 0.002896 0.754896
vt 0.215295 0.754896
vt 0.215295 0.791326
vt 0.002896 0.791326
vt 0.221087 0.797118
vt 0.433486 0.797118
vt 0.433486 0.833548
vt 0.221087 0.833548
vt 0.962685 0.689063
vt 0.962685 0.802417
vt 0.940784 0.802417
vt 0.940784 0.689063
vt 0.869625 0.897892
vt 0.982979 0.897892
vt 0.982979 0.926868
vt 0.869625 0.926868
vt 0.728629 0.826029
vt 0.728629 0.712675
vt 0.750530 0.712675
vt 0.750530 0.826029
vt 0.657469 0.956271
vt 0.770823 0.956271
vt 0.770823 0.985247
vt 0.657469 0.985247
vt 0.782358 0.720018
vt 0.820200 0.720018
vt 0.782358 0.717761
vt 0.820200 0.717761
vt 0.782358 0.714678
vt 0.820200 0.714678
vt 0.820200 0.917788
vt 0.782358 0.917788
vt 0.820200 0.920045
vt 0.782358 0.920045
vt 0.820200 0.689063
vt 0.782358 0.689063
vt 0.002896 0.498253
vt 0.961543 0.498253
vt 0.961543 0.520558
vt 0.002896 0.520558
vt 0.002896 0.689063
vt 0.776564 0.689063
vt 0.776564 0.706883
vt 0.002896 0.706883
vn 0.0000 -0.0000 1.0000
vn 1.0000 0.0000 0.0000
vn 0.0000 -1.0000 0.0000
vn 0.0000 1.0000 0.0000
vn 0.0000 0.0000 -1.0000
vn -1.0000 -0.0000 0.0000
vn 0.0000 -0.9914 -0.1305
vn 0.0000 -0.9914 0.1305
vn 0.0000 -0.1305 -0.9914
vn 0.0000 -0.8660 0.5000
vn 0.0000 -0.5000 0.8660
vn 0.0000 -0.1305 0.9914
vn 0.0000 -0.8660 -0.5000
vn 0.0000 -0.5000 -0.8660
usemtl Material.001
s 1
f 64/1/1 4/2/1 3/3/1 63/4/1
f 2/5/2 1/6/2 3/7/2 4/8/2
f 4/9/3 64/10/3 62/11/3 2/12/3
f 61/13/4 63/14/4 3/15/4 1/16/4
f 68/17/4 66/18/4 6/19/4 8/20/4
f 7/21/2 8/22/2 6/23/2 5/24/2
f 5/25/3 65/26/3 67/27/3 7/28/3
f 65/29/1 5/30/1 6/31/1 66/32/1
f 7/33/5 67/34/5 68/35/5 8/36/5
f 12/37/3 72/38/3 70/39/3 10/40/3
f 69/41/4 71/42/4 11/43/4 9/44/4
f 10/45/5 70/46/5 69/47/5 9/48/5
f 72/49/1 12/50/1 11/51/1 71/52/1
f 10/53/2 9/54/2 11/55/2 12/56/2
f 15/57/4 16/58/4 14/59/4 13/60/4
f 16/61/6 15/62/6 57/63/6 59/64/6 60/65/6 58/66/6 45/67/6 47/68/6 48/69/6 46/70/6
f 58/71/7 53/72/7 50/73/8 45/74/8
f 13/75/2 14/76/2 49/77/2 51/78/2 52/79/2 50/80/2 53/81/2 55/82/2 56/83/2 54/84/2
f 15/85/5 13/86/5 54/87/9 57/88/9
f 30/89/3 31/90/3 26/91/3 25/92/3
f 29/93/3 28/94/3 27/95/3 32/96/3
f 17/97/6 24/98/6 30/99/6 25/100/6
f 19/101/2 22/102/2 27/103/2 28/104/2
f 22/105/1 23/106/1 32/107/1 27/108/1
f 23/109/6 20/110/6 29/111/6 32/112/6
f 21/113/2 18/114/2 26/115/2 31/116/2
f 20/117/5 19/118/5 28/119/5 29/120/5
f 18/121/1 17/122/1 25/123/1 26/124/1
f 24/125/5 21/126/5 31/127/5 30/128/5
f 33/129/2 36/130/2 39/131/2 37/132/2
f 36/133/3 35/134/3 40/135/3 39/136/3
f 35/137/6 34/138/6 38/139/6 40/140/6
f 34/141/4 33/142/4 37/143/4 38/144/4
f 101/145/4 41/146/4 43/147/4 103/148/4
f 103/149/5 43/150/5 44/151/5 104/152/5
f 104/153/3 44/154/3 42/155/3 102/156/3
f 45/74/8 50/73/8 52/157/10 47/158/10
f 47/158/10 52/157/10 51/159/11 48/160/11
f 48/160/11 51/159/11 49/161/12 46/162/12
f 53/72/7 58/71/7 60/163/13 55/164/13
f 55/164/13 60/163/13 59/165/14 56/166/14
f 56/166/14 59/165/14 57/88/9 54/87/9
f 14/167/1 16/168/1 46/162/12 49/161/12
f 62/169/6 64/170/6 63/171/6 61/172/6
f 67/173/6 65/174/6 66/175/6 68/176/6
f 70/177/6 72/178/6 71/179/6 69/180/6
f 75/181/4 73/182/4 74/183/4 76/184/4
f 76/185/2 106/186/2 108/187/2 107/188/2 105/189/2 118/190/2 120/191/2 119/192/2 117/193/2 75/194/2
f 118/195/7 105/196/8 110/197/8 113/198/7
f 73/199/6 114/200/6 116/201/6 115/202/6 113/203/6 110/204/6 112/205/6 111/206/6 109/207/6 74/208/6
f 75/209/5 117/210/9 114/211/9 73/212/5
f 90/213/3 85/214/3 86/215/3 91/216/3
f 89/217/3 92/218/3 87/219/3 88/220/3
f 77/221/2 85/222/2 90/223/2 84/224/2
f 79/225/6 88/226/6 87/227/6 82/228/6
f 82/229/1 87/230/1 92/231/1 83/232/1
f 83/233/2 92/234/2 89/235/2 80/236/2
f 81/237/6 91/238/6 86/239/6 78/240/6
f 80/241/5 89/242/5 88/243/5 79/244/5
f 78/245/1 86/246/1 85/247/1 77/248/1
f 84/249/5 90/250/5 91/251/5 81/252/5
f 93/253/6 97/254/6 99/255/6 96/256/6
f 96/257/3 99/258/3 100/259/3 95/260/3
f 95/261/2 100/262/2 98/263/2 94/264/2
f 94/265/4 98/266/4 97/267/4 93/268/4
f 105/196/8 107/269/10 112/270/10 110/197/8
f 107/269/10 108/271/11 111/272/11 112/270/10
f 108/271/11 106/273/12 109/274/12 111/272/11
f 113/198/7 115/275/13 120/276/13 118/195/7
f 115/275/13 116/277/14 119/278/14 120/276/13
f 116/277/14 114/211/9 117/210/9 119/278/14
f 74/279/1 109/274/12 106/273/12 76/280/1
f 2/281/5 62/282/5 61/283/5 1/284/5
f 102/285/1 42/286/1 41/287/1 101/288/1
