# Blender v2.79 (sub 0) OBJ File: 'Crate03.blend'
# www.blender.org
mtllib Crate03_blend.mtl
o Crate_03_cover
v 0.500000 0.235000 0.121000
v 0.500000 0.235000 0.001000
v -0.500000 0.235000 0.001000
v -0.500000 0.235000 0.121000
v 0.500000 0.230000 0.121000
v -0.500000 0.230000 0.121000
v -0.500000 0.230000 0.001000
v 0.500000 0.230000 0.001000
v 0.500000 0.235000 -0.001000
v 0.500000 0.235000 -0.121000
v -0.500000 0.235000 -0.121000
v -0.500000 0.235000 -0.001000
v 0.500000 0.230000 -0.001000
v -0.500000 0.230000 -0.001000
v -0.500000 0.230000 -0.121000
v 0.500000 0.230000 -0.121000
v -0.212500 0.240000 0.125000
v -0.212500 0.240000 -0.125000
v -0.287500 0.240000 -0.125000
v -0.287500 0.240000 0.125000
v -0.212500 0.235000 0.125000
v -0.287500 0.235000 0.125000
v -0.287500 0.235000 -0.125000
v -0.212500 0.235000 -0.125000
v 0.287500 0.240000 0.125000
v 0.287500 0.240000 -0.125000
v 0.212500 0.240000 -0.125000
v 0.212500 0.240000 0.125000
v 0.287500 0.235000 0.125000
v 0.212500 0.235000 0.125000
v 0.212500 0.235000 -0.125000
v 0.287500 0.235000 -0.125000
vt 0.336200 -0.579100
vt 0.456200 -0.579100
vt 0.456200 1.576000
vt 0.336200 1.576000
vt 0.336200 -0.579100
vt 0.336200 1.576000
vt 0.456200 1.576000
vt 0.456200 -0.579100
vt 0.741700 -0.579100
vt 0.861700 -0.579100
vt 0.861700 1.576000
vt 0.741700 1.576000
vt 0.741700 -0.579100
vt 0.741700 1.576000
vt 0.861700 1.576000
vt 0.861700 -0.579100
vt 0.442600 -0.428100
vt 0.442600 0.110700
vt 0.367600 0.110700
vt 0.367600 -0.428100
vt 0.442600 -0.428100
vt 0.367600 -0.428100
vt 0.367600 0.110700
vt 0.442600 0.110700
vt 0.787500 0.229100
vt 0.787500 0.767800
vt 0.712500 0.767800
vt 0.712500 0.229100
vt 0.787500 0.229100
vt 0.712500 0.229100
vt 0.712500 0.767800
vt 0.787500 0.767800
vn 0.0000 1.0000 0.0000
vn 0.0000 -1.0000 -0.0000
vn 0.0000 0.0000 -1.0000
vn 1.0000 0.0000 0.0000
vn 0.0000 0.0000 1.0000
vn -1.0000 0.0000 0.0000
usemtl Material.001
s 1
f 1/1/1 2/2/1 3/3/1 4/4/1
f 5/5/2 6/6/2 7/7/2 8/8/2
f 8/8/3 7/7/3 3/3/3 2/2/3
f 5/5/4 8/8/4 2/2/4 1/1/4
f 6/6/5 5/5/5 1/1/5 4/4/5
f 7/7/6 6/6/6 4/4/6 3/3/6
f 9/9/1 10/10/1 11/11/1 12/12/1
f 13/13/2 14/14/2 15/15/2 16/16/2
f 16/16/3 15/15/3 11/11/3 10/10/3
f 13/13/4 16/16/4 10/10/4 9/9/4
f 14/14/5 13/13/5 9/9/5 12/12/5
f 15/15/6 14/14/6 12/12/6 11/11/6
f 17/17/1 18/18/1 19/19/1 20/20/1
f 21/21/2 22/22/2 23/23/2 24/24/2
f 24/24/3 23/23/3 19/19/3 18/18/3
f 21/21/4 24/24/4 18/18/4 17/17/4
f 22/22/5 21/21/5 17/17/5 20/20/5
f 23/23/6 22/22/6 20/20/6 19/19/6
f 25/25/1 26/26/1 27/27/1 28/28/1
f 29/29/2 30/30/2 31/31/2 32/32/2
f 32/32/3 31/31/3 27/27/3 26/26/3
f 29/29/4 32/32/4 26/26/4 25/25/4
f 30/30/5 29/29/5 25/25/5 28/28/5
f 31/31/6 30/30/6 28/28/6 27/27/6
o Crate_03_case
v 0.500000 0.005000 0.001000
v 0.500000 0.005000 0.121000
v -0.500000 0.005000 0.121000
v -0.500000 0.005000 0.001000
v 0.500000 0.010000 0.001000
v -0.500000 0.010000 0.001000
v -0.500000 0.010000 0.121000
v 0.500000 0.010000 0.121000
v 0.500000 0.005000 -0.121000
v 0.500000 0.005000 -0.001000
v -0.500000 0.005000 -0.001000
v -0.500000 0.005000 -0.121000
v 0.500000 0.010000 -0.121000
v -0.500000 0.010000 -0.121000
v -0.500000 0.010000 -0.001000
v 0.500000 0.010000 -0.001000
v 0.495000 0.010000 -0.120500
v 0.495000 0.010000 -0.115500
v -0.495000 0.010000 -0.115500
v -0.495000 0.010000 -0.120500
v 0.495000 0.119500 -0.120500
v -0.495000 0.119500 -0.120500
v -0.495000 0.119500 -0.115500
v 0.495000 0.119500 -0.115500
v 0.495000 0.010000 0.115500
v 0.495000 0.010000 0.120500
v -0.495000 0.010000 0.120500
v -0.495000 0.010000 0.115500
v 0.495000 0.119500 0.115500
v -0.495000 0.119500 0.115500
v -0.495000 0.119500 0.120500
v 0.495000 0.119500 0.120500
v -0.462500 0.010000 -0.115000
v -0.462500 0.010000 0.115000
v -0.467500 0.010000 0.115000
v -0.467500 0.010000 -0.115000
v -0.462500 0.119000 -0.115000
v -0.467500 0.119000 -0.115000
v -0.467500 0.119000 0.115000
v -0.462500 0.119000 0.115000
v -0.212500 0.005000 0.120500
v -0.212500 0.005000 0.125500
v -0.287500 0.005000 0.125500
v -0.287500 0.005000 0.120500
v -0.212500 0.235000 0.120500
v -0.287500 0.235000 0.120500
v -0.287500 0.235000 0.125500
v -0.212500 0.235000 0.125500
v -0.212500 0.000000 -0.125000
v -0.212500 -0.000000 0.125000
v -0.287500 -0.000000 0.125000
v -0.287500 0.000000 -0.125000
v -0.212500 0.005000 -0.125000
v -0.287500 0.005000 -0.125000
v -0.287500 0.005000 0.125000
v -0.212500 0.005000 0.125000
v -0.212500 0.005000 -0.125500
v -0.212500 0.005000 -0.120500
v -0.287500 0.005000 -0.120500
v -0.287500 0.005000 -0.125500
v -0.212500 0.235000 -0.125500
v -0.287500 0.235000 -0.125500
v -0.287500 0.235000 -0.120500
v -0.212500 0.235000 -0.120500
v 0.287500 0.005000 -0.125500
v 0.287500 0.005000 -0.120500
v 0.212500 0.005000 -0.120500
v 0.212500 0.005000 -0.125500
v 0.287500 0.235000 -0.125500
v 0.212500 0.235000 -0.125500
v 0.212500 0.235000 -0.120500
v 0.287500 0.235000 -0.120500
v 0.287500 0.005000 0.120500
v 0.287500 0.005000 0.125500
v 0.212500 0.005000 0.125500
v 0.212500 0.005000 0.120500
v 0.287500 0.235000 0.120500
v 0.212500 0.235000 0.120500
v 0.212500 0.235000 0.125500
v 0.287500 0.235000 0.125500
v 0.287500 0.000000 -0.125000
v 0.287500 -0.000000 0.125000
v 0.212500 -0.000000 0.125000
v 0.212500 0.000000 -0.125000
v 0.287500 0.005000 -0.125000
v 0.212500 0.005000 -0.125000
v 0.212500 0.005000 0.125000
v 0.287500 0.005000 0.125000
v 0.467500 0.010000 -0.115000
v 0.467500 0.010000 0.115000
v 0.462500 0.010000 0.115000
v 0.462500 0.010000 -0.115000
v 0.467500 0.119000 -0.115000
v 0.462500 0.119000 -0.115000
v 0.462500 0.119000 0.115000
v 0.467500 0.119000 0.115000
v 0.495000 0.120500 -0.120500
v 0.495000 0.120500 -0.115500
v -0.495000 0.120500 -0.115500
v -0.495000 0.120500 -0.120500
v 0.495000 0.230000 -0.120500
v -0.495000 0.230000 -0.120500
v -0.495000 0.230000 -0.115500
v 0.495000 0.230000 -0.115500
v 0.495000 0.120500 0.115500
v 0.495000 0.120500 0.120500
v -0.495000 0.120500 0.120500
v -0.495000 0.120500 0.115500
v 0.495000 0.230000 0.115500
v -0.495000 0.230000 0.115500
v -0.495000 0.230000 0.120500
v 0.495000 0.230000 0.120500
v -0.462500 0.120200 -0.115000
v -0.462500 0.120200 0.115000
v -0.467500 0.120200 0.115000
v -0.467500 0.120200 -0.115000
v -0.462500 0.229200 -0.115000
v -0.467500 0.229200 -0.115000
v -0.467500 0.229200 0.115000
v -0.462500 0.229200 0.115000
v 0.467500 0.120200 -0.115000
v 0.467500 0.120200 0.115000
v 0.462500 0.120200 0.115000
v 0.462500 0.120200 -0.115000
v 0.467500 0.229200 -0.115000
v 0.462500 0.229200 -0.115000
v 0.462500 0.229200 0.115000
v 0.467500 0.229200 0.115000
vt 0.129900 -0.579100
vt 0.009900 -0.579100
vt 0.009900 1.576000
vt 0.129900 1.576000
vt 0.129900 -0.579100
vt 0.129900 1.576000
vt 0.009900 1.576000
vt 0.009900 -0.579100
vt 0.837700 -0.579100
vt 0.717700 -0.579100
vt 0.717700 1.576000
vt 0.837700 1.576000
vt 0.837700 -0.579100
vt 0.837700 1.576000
vt 0.717700 1.576000
vt 0.717700 -0.579100
vt 0.876400 -0.579100
vt 0.876400 -0.579100
vt 0.876400 1.576000
vt 0.876400 1.576000
vt 0.994100 -0.579100
vt 0.994100 1.576000
vt 0.994100 1.576000
vt 0.994100 -0.579100
vt 0.527700 -0.573400
vt 0.527700 -0.573400
vt 0.527700 1.581800
vt 0.527700 1.581800
vt 0.645400 -0.573400
vt 0.645400 1.581800
vt 0.645400 1.581800
vt 0.645400 -0.573400
vt 0.337400 0.078800
vt 0.337400 0.316400
vt 0.337400 0.316400
vt 0.337400 0.078800
vt 0.458500 0.078800
vt 0.458500 0.078800
vt 0.458500 0.316400
vt 0.458500 0.316400
vt 0.972800 -0.490500
vt 0.972800 -0.490500
vt 0.897000 -0.490500
vt 0.897000 -0.490500
vt 0.972800 -0.062300
vt 0.897000 -0.062300
vt 0.897000 -0.062300
vt 0.972800 -0.062300
vt 0.437300 1.113700
vt 0.437300 0.574900
vt 0.362300 0.574900
vt 0.362300 1.113700
vt 0.437300 1.113700
vt 0.362300 1.113700
vt 0.362300 0.574900
vt 0.437300 0.574900
vt 0.116800 -0.017800
vt 0.116800 -0.017800
vt 0.041100 -0.017800
vt 0.041100 -0.017800
vt 0.116800 0.410400
vt 0.041100 0.410400
vt 0.041100 0.410400
vt 0.116800 0.410400
vt 0.790400 0.357000
vt 0.790400 0.357000
vt 0.714600 0.357000
vt 0.714600 0.357000
vt 0.790400 0.785100
vt 0.714600 0.785100
vt 0.714600 0.785100
vt 0.790400 0.785100
vt 0.629900 0.201300
vt 0.629900 0.201300
vt 0.554200 0.201300
vt 0.554200 0.201300
vt 0.629900 0.629400
vt 0.554200 0.629400
vt 0.554200 0.629400
vt 0.629900 0.629400
vt 0.811600 1.425000
vt 0.811600 0.886200
vt 0.736600 0.886200
vt 0.736600 1.425000
vt 0.811600 1.425000
vt 0.736600 1.425000
vt 0.736600 0.886200
vt 0.811600 0.886200
vt 0.557100 0.009700
vt 0.557100 0.247300
vt 0.557100 0.247300
vt 0.557100 0.009700
vt 0.678300 0.009700
vt 0.678300 0.009700
vt 0.678300 0.247300
vt 0.678300 0.247300
vt 0.168300 -0.579100
vt 0.168300 -0.579100
vt 0.168300 1.576000
vt 0.168300 1.576000
vt 0.286100 -0.579100
vt 0.286100 1.576000
vt 0.286100 1.576000
vt 0.286100 -0.579100
vt 0.015000 -0.573400
vt 0.015000 -0.573400
vt 0.015000 1.581800
vt 0.015000 1.581800
vt 0.132800 -0.573400
vt 0.132800 1.581800
vt 0.132800 1.581800
vt 0.132800 -0.573400
vt 0.174600 0.756900
vt 0.174600 0.994500
vt 0.174600 0.994500
vt 0.174600 0.756900
vt 0.295800 0.756900
vt 0.295800 0.756900
vt 0.295800 0.994500
vt 0.295800 0.994500
vt 0.724400 0.733000
vt 0.724400 0.970600
vt 0.724400 0.970600
vt 0.724400 0.733000
vt 0.845500 0.733000
vt 0.845500 0.733000
vt 0.845500 0.970600
vt 0.845500 0.970600
vn 0.0000 -1.0000 -0.0000
vn 0.0000 1.0000 0.0000
vn 0.0000 0.0000 1.0000
vn 1.0000 0.0000 0.0000
vn 0.0000 0.0000 -1.0000
vn -1.0000 0.0000 0.0000
usemtl Material.001
s 1
f 33/33/7 34/34/7 35/35/7 36/36/7
f 37/37/8 38/38/8 39/39/8 40/40/8
f 40/40/9 39/39/9 35/35/9 34/34/9
f 37/37/10 40/40/10 34/34/10 33/33/10
f 38/38/11 37/37/11 33/33/11 36/36/11
f 39/39/12 38/38/12 36/36/12 35/35/12
f 41/41/7 42/42/7 43/43/7 44/44/7
f 45/45/8 46/46/8 47/47/8 48/48/8
f 48/48/9 47/47/9 43/43/9 42/42/9
f 45/45/10 48/48/10 42/42/10 41/41/10
f 46/46/11 45/45/11 41/41/11 44/44/11
f 47/47/12 46/46/12 44/44/12 43/43/12
f 49/49/7 50/50/7 51/51/7 52/52/7
f 53/53/8 54/54/8 55/55/8 56/56/8
f 56/56/9 55/55/9 51/51/9 50/50/9
f 53/53/10 56/56/10 50/50/10 49/49/10
f 54/54/11 53/53/11 49/49/11 52/52/11
f 55/55/12 54/54/12 52/52/12 51/51/12
f 57/57/7 58/58/7 59/59/7 60/60/7
f 61/61/8 62/62/8 63/63/8 64/64/8
f 64/64/9 63/63/9 59/59/9 58/58/9
f 61/61/10 64/64/10 58/58/10 57/57/10
f 62/62/11 61/61/11 57/57/11 60/60/11
f 63/63/12 62/62/12 60/60/12 59/59/12
f 65/65/7 66/66/7 67/67/7 68/68/7
f 69/69/8 70/70/8 71/71/8 72/72/8
f 72/72/9 71/71/9 67/67/9 66/66/9
f 69/69/10 72/72/10 66/66/10 65/65/10
f 70/70/11 69/69/11 65/65/11 68/68/11
f 71/71/12 70/70/12 68/68/12 67/67/12
f 73/73/7 74/74/7 75/75/7 76/76/7
f 77/77/8 78/78/8 79/79/8 80/80/8
f 80/80/9 79/79/9 75/75/9 74/74/9
f 77/77/10 80/80/10 74/74/10 73/73/10
f 78/78/11 77/77/11 73/73/11 76/76/11
f 79/79/12 78/78/12 76/76/12 75/75/12
f 81/81/7 82/82/7 83/83/7 84/84/7
f 85/85/8 86/86/8 87/87/8 88/88/8
f 88/88/9 87/87/9 83/83/9 82/82/9
f 85/85/10 88/88/10 82/82/10 81/81/10
f 86/86/11 85/85/11 81/81/11 84/84/11
f 87/87/12 86/86/12 84/84/12 83/83/12
f 89/89/7 90/90/7 91/91/7 92/92/7
f 93/93/8 94/94/8 95/95/8 96/96/8
f 96/96/9 95/95/9 91/91/9 90/90/9
f 93/93/10 96/96/10 90/90/10 89/89/10
f 94/94/11 93/93/11 89/89/11 92/92/11
f 95/95/12 94/94/12 92/92/12 91/91/12
f 97/97/7 98/98/7 99/99/7 100/100/7
f 101/101/8 102/102/8 103/103/8 104/104/8
f 104/104/9 103/103/9 99/99/9 98/98/9
f 101/101/10 104/104/10 98/98/10 97/97/10
f 102/102/11 101/101/11 97/97/11 100/100/11
f 103/103/12 102/102/12 100/100/12 99/99/12
f 105/105/7 106/106/7 107/107/7 108/108/7
f 109/109/8 110/110/8 111/111/8 112/112/8
f 112/112/9 111/111/9 107/107/9 106/106/9
f 109/109/10 112/112/10 106/106/10 105/105/10
f 110/110/11 109/109/11 105/105/11 108/108/11
f 111/111/12 110/110/12 108/108/12 107/107/12
f 113/113/7 114/114/7 115/115/7 116/116/7
f 117/117/8 118/118/8 119/119/8 120/120/8
f 120/120/9 119/119/9 115/115/9 114/114/9
f 117/117/10 120/120/10 114/114/10 113/113/10
f 118/118/11 117/117/11 113/113/11 116/116/11
f 119/119/12 118/118/12 116/116/12 115/115/12
f 121/121/7 122/122/7 123/123/7 124/124/7
f 125/125/8 126/126/8 127/127/8 128/128/8
f 128/128/9 127/127/9 123/123/9 122/122/9
f 125/125/10 128/128/10 122/122/10 121/121/10
f 126/126/11 125/125/11 121/121/11 124/124/11
f 127/127/12 126/126/12 124/124/12 123/123/12
f 129/129/7 130/130/7 131/131/7 132/132/7
f 133/133/8 134/134/8 135/135/8 136/136/8
f 136/136/9 135/135/9 131/131/9 130/130/9
f 133/133/10 136/136/10 130/130/10 129/129/10
f 134/134/11 133/133/11 129/129/11 132/132/11
f 135/135/12 134/134/12 132/132/12 131/131/12
f 137/137/7 138/138/7 139/139/7 140/140/7
f 141/141/8 142/142/8 143/143/8 144/144/8
f 144/144/9 143/143/9 139/139/9 138/138/9
f 141/141/10 144/144/10 138/138/10 137/137/10
f 142/142/11 141/141/11 137/137/11 140/140/11
f 143/143/12 142/142/12 140/140/12 139/139/12
f 145/145/7 146/146/7 147/147/7 148/148/7
f 149/149/8 150/150/8 151/151/8 152/152/8
f 152/152/9 151/151/9 147/147/9 146/146/9
f 149/149/10 152/152/10 146/146/10 145/145/10
f 150/150/11 149/149/11 145/145/11 148/148/11
f 151/151/12 150/150/12 148/148/12 147/147/12
f 153/153/7 154/154/7 155/155/7 156/156/7
f 157/157/8 158/158/8 159/159/8 160/160/8
f 160/160/9 159/159/9 155/155/9 154/154/9
f 157/157/10 160/160/10 154/154/10 153/153/10
f 158/158/11 157/157/11 153/153/11 156/156/11
f 159/159/12 158/158/12 156/156/12 155/155/12
