# Blender v2.79 (sub 0) OBJ File: 'ReefBase.blend'
# www.blender.org
mtllib ReefBase_blend.mtl
o ReefBaseOne256
v 4.092210 1.990175 2.558875
v -2.993496 2.129798 -2.980516
v -1.724373 0.272149 2.902697
v 2.362643 0.123030 -2.411360
v 2.755372 0.350367 2.827018
v -2.598773 0.184234 -2.409528
v -3.158777 2.154025 -0.909828
v 3.922539 1.725973 -2.539801
v -2.373649 0.759179 3.140626
v 2.687601 1.046214 2.192069
v 1.338493 1.991426 2.555175
v 0.060367 2.176497 -0.125484
v -4.179159 0.429511 -2.408993
v -3.629479 0.159767 0.855231
v 3.689862 0.474625 1.999539
v -0.007040 2.160290 -2.832058
v 0.573755 1.268162 2.822462
v 3.541723 2.030628 -0.133935
v -3.387026 1.086067 0.354710
v 3.549236 1.520353 -3.003947
v -1.736862 1.923437 1.806856
v 2.755661 2.029537 -2.297375
v 2.979926 4.870310 -2.190254
v 1.526590 2.029537 0.275784
v 1.750856 4.870309 0.382903
v 3.303134 2.029537 -0.000573
v 1.518526 4.870310 -2.238585
v 3.483265 4.870310 -0.171812
v 1.338395 2.029537 -2.067347
v 2.528053 2.290981 2.545952
v 3.267828 0.730897 0.367578
v 3.799589 4.870309 -1.396770
v 3.799589 2.029537 -1.148236
v 0.947966 4.870309 -1.396770
v 0.947966 2.029537 -1.148236
v 2.986641 0.214189 -2.455394
v -1.946121 2.399901 -1.282150
v 4.214777 2.189130 1.797175
v -3.487328 4.408407 -1.536374
v -2.834852 2.180222 -1.623654
v -2.551411 4.764590 -3.632884
v -1.898935 2.536404 -3.720163
v -3.664241 4.341079 -3.672265
v -1.482046 2.695060 -1.848816
v -2.978157 2.125684 -3.532744
v -2.168128 4.910456 -1.988334
v 2.474231 1.867683 -3.485271
v 1.702214 4.395453 -1.868149
v 1.529905 2.235635 -1.542794
v 2.646539 4.027501 -3.810626
v -2.083764 3.712185 2.715589
v -2.248913 1.717688 2.079721
v -1.343837 2.224807 0.253991
v -1.178691 4.219304 0.889857
v -3.275465 2.012539 -2.783888
v -4.098712 4.175733 -2.986384
v -1.104005 2.838931 -2.783888
v -1.927253 5.002125 -2.986384
v 1.363181 1.851706 2.957839
v 1.619357 4.187487 1.141871
v 0.773469 3.865566 3.036719
v 2.209072 2.173627 1.062988
v 3.033267 4.316130 -2.286903
v 2.894868 2.196116 -1.751417
v 1.385309 1.900576 -3.311627
v 1.523709 4.020590 -3.847113
v -3.303824 1.042191 1.479543
v -2.859425 3.349573 -0.336425
v -3.728596 3.097175 1.558423
v -2.434653 1.294588 -0.415308
v -0.107708 2.029237 1.479543
v 0.962514 4.121155 -0.336425
v 0.057438 4.121155 1.558423
v 0.797369 2.029237 -0.415308
v 0.057438 4.121155 -0.021940
v -0.107708 2.029237 -0.100824
v 0.797369 2.029237 -1.995671
v 0.962514 4.121155 -1.916788
v -0.714831 4.239424 -1.659299
v -2.284692 2.385767 0.049127
v -1.330359 2.237840 -1.815537
v -1.669165 4.387349 0.205366
v 1.965773 4.319323 2.628232
v 2.585862 2.317023 2.754334
v 1.233659 1.802414 1.232377
v 0.613570 3.804714 1.106279
v -2.387496 2.179473 0.417204
v -2.254852 4.228829 0.855566
v -0.808037 3.821509 2.322001
v -0.940681 1.772153 1.883638
v -3.892896 3.049466 -0.372017
v -2.047489 1.407015 1.276033
v -3.436910 1.003544 -0.245920
v -2.503475 3.452936 1.149936
v -1.762801 4.476886 -1.728304
v -1.001377 2.103735 -0.113492
v -2.354408 2.462646 -1.678775
v -0.409770 4.117976 -0.163021
v 0.162633 0.871639 3.496795
v -2.966413 0.840738 -2.084239
v -1.882406 0.093613 2.045483
v -0.113647 4.121155 -1.952381
v 1.200521 2.029237 -0.304329
v -0.246294 2.029237 -1.826283
v -0.113647 4.121155 -0.372017
v 1.200521 2.029237 1.276033
v -0.246294 2.029237 -0.245920
v 1.333169 4.121155 -0.430428
v 1.333169 4.121155 1.149936
v 0.964951 1.700151 1.909205
v 2.183478 4.402175 1.726185
v 2.927540 2.447056 1.909205
v 0.220889 3.655271 1.726185
v 1.085334 2.032005 -2.617787
v 3.276306 4.140966 -3.211627
v 3.276306 2.032005 -2.617787
v 1.085334 4.140966 -3.211627
v -2.240021 1.661788 -2.686749
v -4.296384 2.932298 0.247889
v -1.696408 1.508965 0.430905
v -3.713013 0.923367 0.430905
v -2.279778 3.517895 0.247889
v -1.958294 2.306772 -3.127919
v -2.195978 4.552545 -1.122130
v -0.612872 2.046129 -0.946340
v -2.660405 2.507621 -1.011620
v -0.148445 4.091053 -1.056855
v -0.533804 2.029237 0.430905
v -0.533804 4.121155 0.247889
v 1.566107 4.121155 0.247889
v -0.575099 4.062924 1.452858
v -0.575099 1.998334 1.069339
v -2.675006 1.998334 1.069339
v -0.533804 4.121155 -1.332475
v 1.566107 2.029237 -1.149458
v -0.533804 2.029237 -1.149458
v 1.566107 2.029237 0.430905
v -2.675006 4.062924 1.452858
v 1.566107 4.121155 -1.332475
v -2.197007 1.192964 2.560523
v 3.031261 2.001595 2.972717
v 2.615896 0.804358 3.020431
v 3.482792 1.295789 -2.029767
v -3.276741 0.368422 2.222737
v -1.809199 1.239919 1.636309
v -1.481830 2.724387 2.023634
v -2.479475 1.022068 3.037774
v -2.152106 2.506536 3.425098
v -1.924431 3.885709 -2.462495
v -2.386729 2.192304 -1.105905
v -1.724955 2.330853 -2.521421
v -2.586205 3.747161 -1.046975
v 0.696489 1.969598 1.636186
v 0.143737 3.532335 3.110636
v 0.020367 1.969598 3.051705
v 1.803304 3.841410 3.110636
v 1.679934 2.278674 3.051705
v 2.356058 2.278674 1.636186
v 2.479429 3.841410 1.695116
v 0.819859 3.532335 1.695116
v -3.739259 1.744029 0.537018
v -3.849841 0.536443 -0.174761
v -3.243800 1.139067 -1.291310
v -3.133219 2.346653 -0.579531
v 3.545266 3.822299 2.292838
v 2.889954 2.642999 2.688998
v 3.194324 2.056865 1.447657
v 3.849636 3.236165 1.051496
v -1.207330 2.450049 3.100187
v -1.510635 0.929529 2.861721
v -2.278807 2.833132 2.020359
v -2.582108 1.312612 1.781893
v -3.265974 2.288665 -2.122478
v -1.430173 2.392568 -1.257930
v -2.711302 3.720971 -2.489082
v -1.653414 3.942448 -1.352129
v -2.488061 2.171090 -2.394883
v 0.401858 1.145487 -2.809783
v 1.675498 3.841410 1.668526
v 2.657228 2.278674 2.899681
v 1.576406 2.278674 1.762728
v -0.083163 1.969598 1.762728
v 0.015929 3.532335 1.668526
v 0.997662 1.969598 2.899681
v 2.756320 3.841410 2.805479
v 1.096754 3.532335 2.805479
v 2.717142 3.872441 2.188030
v 2.736232 2.550190 2.665958
v 3.339689 2.126190 1.468798
v 3.320600 3.448441 0.990873
v 3.339689 2.503548 1.451594
v 3.320600 3.831043 1.914756
v 2.736232 2.077445 2.648005
v 2.717142 3.404940 3.111166
v -2.973850 0.601164 -0.294680
v -3.853819 2.357973 -0.600503
v -2.885027 1.873941 0.296317
v -3.942636 1.085196 -1.191499
v 3.567732 3.842907 1.904922
v 3.608491 2.573990 2.509333
v 2.603072 3.377888 0.993704
v 2.643831 2.108971 1.598118
v 2.450254 2.266498 -0.136847
v 2.010981 3.601179 -0.084026
v 1.452015 3.366998 1.184769
v 1.891287 2.032316 1.131948
v -1.260250 2.040575 -0.136847
v -0.834132 3.379513 -0.084026
v -1.424303 3.517284 1.184769
v 2.874105 3.440206 -0.084026
v 1.857811 2.239038 1.131948
v 2.447984 2.101267 -0.136847
v -1.850425 2.178346 1.131948
v 2.283931 3.577977 1.184769
v 3.809850 3.646888 0.461881
v 3.225482 2.186008 1.677856
v 3.828939 2.241907 0.409060
v 3.206393 3.590988 1.730674
v -1.938147 2.042116 -0.136847
v -2.433607 3.442867 1.184769
v -1.827566 3.442867 -0.084026
v -3.243800 0.867896 -1.730796
v -3.739259 2.268648 -0.409182
vt 0.957375 1.285959
vt 0.888504 1.184232
vt 1.217797 1.194910
vt 1.369723 1.298729
vt 0.382228 0.401544
vt 1.113793 -0.493173
vt 1.203425 0.117890
vt 1.026327 0.882108
vt -0.368915 0.541443
vt -0.095819 -0.550140
vt 1.210028 1.317724
vt 0.481919 1.346105
vt -0.385114 0.750463
vt -0.476127 0.941851
vt -0.385114 1.388341
vt -0.493964 1.132152
vt -0.368915 1.109278
vt 0.060447 0.544460
vt 0.659680 0.515729
vt 0.846126 1.188930
vt 0.096344 1.125647
vt 0.559448 0.146652
vt -0.058907 0.041976
vt 0.099388 -0.411343
vt 1.191567 -0.338540
vt 1.157562 0.084028
vt 1.175044 0.309143
vt 1.258830 1.198395
vt 1.198034 0.273380
vt -0.015841 0.445735
vt 0.626820 0.450139
vt 1.517493 1.187765
vt 1.365083 0.282844
vt 1.456041 1.136500
vt 1.113793 1.218064
vt 1.079187 0.816006
vt 0.211538 1.340273
vt -0.297478 0.882108
vt -0.124883 0.117890
vt 0.573778 0.346238
vt -0.217912 -0.264874
vt 0.717156 -0.515946
vt 1.108891 -0.321734
vt 0.939140 -0.058116
vt -0.279084 -0.321734
vt -0.122583 -0.480395
vt 1.205654 0.445735
vt 0.989758 1.125647
vt 1.371829 0.041976
vt 1.499097 -0.264874
vt -0.381629 1.317724
vt 1.279084 -0.108891
vt -0.046549 -0.194847
vt -0.095819 1.218590
vt 0.356683 -0.247773
vt -0.100107 0.309143
vt 0.422536 0.015651
vt 1.255382 0.941851
vt -0.205182 1.187765
vt 1.231203 -0.465292
vt 1.118045 -0.146090
vt 1.109278 0.541443
vt 1.409210 0.036920
vt 1.119746 -0.211194
vt 1.157562 -0.337398
vt -0.274334 0.305275
vt -0.298393 1.147713
vt -0.419399 -0.044955
vt -0.044955 -0.222882
vt 1.419399 -0.222882
vt 1.182389 -0.024763
vt 1.154492 -0.185054
vt 1.547376 0.013014
vt 0.534515 0.563778
vt 1.136146 -0.201479
vt -0.250324 0.788462
vt 0.096344 0.010242
vt 0.045326 0.895117
vt 0.042359 1.423855
vt -0.197944 1.359057
vt -0.276459 1.135836
vt 1.464143 -0.234870
vt 0.172171 1.178296
vt 0.013014 1.372949
vt 0.846126 -0.204122
vt 1.136146 1.467750
vt 0.518081 1.339103
vt 1.383282 0.566199
vt 0.566199 1.225418
vt 0.957641 1.482448
vt -0.135836 1.465596
vt 1.000000 1.000000
vt 0.000000 1.000000
vt 0.000000 0.000000
vt 1.000000 0.000000
vt 0.000000 0.000000
vt 1.000000 0.000000
vt 1.000000 1.000000
vt 0.000000 1.000000
vt 0.000000 0.000000
vt 1.000000 0.000000
vt 1.000000 1.000000
vt 0.000000 1.000000
vt 0.000000 0.000000
vt 1.000000 0.000000
vt 1.000000 1.000000
vt 0.000000 1.000000
vt 1.000000 1.000000
vt 0.000000 1.000000
vt 0.000000 0.000000
vt 1.000000 0.000000
vt 1.000000 1.000000
vt 0.000000 1.000000
vt 0.000000 0.000000
vt 1.000000 0.000000
vt 0.000000 0.000000
vt 1.000000 0.000000
vt 1.000000 1.000000
vt 0.000000 1.000000
vt 1.000000 1.000000
vt 0.000000 1.000000
vt 0.000000 0.000000
vt 1.000000 0.000000
vt 1.000000 1.000000
vt 0.000000 1.000000
vt 0.000000 0.000000
vt 1.000000 0.000000
vt 1.000000 1.000000
vt 0.000000 1.000000
vt 0.000000 0.000000
vt 1.000000 0.000000
vt 1.000000 1.000000
vt 0.000000 1.000000
vt 0.000000 0.000000
vt 1.000000 0.000000
vt 1.000000 1.000000
vt 0.000000 1.000000
vt 0.000000 0.000000
vt 1.000000 0.000000
vt 1.000000 1.000000
vt 0.000000 1.000000
vt 0.000000 0.000000
vt 1.000000 0.000000
vt 1.000000 1.000000
vt 0.000000 1.000000
vt 0.000000 0.000000
vt 1.000000 0.000000
vt 1.000000 1.000000
vt 0.000000 1.000000
vt 0.000000 0.000000
vt 1.000000 0.000000
vt 1.000000 1.000000
vt 0.000000 1.000000
vt 0.000000 0.000000
vt 1.000000 0.000000
vt 0.000000 0.000000
vt 1.000000 0.000000
vt 1.000000 1.000000
vt 0.000000 1.000000
vt 1.000000 1.000000
vt 0.000000 1.000000
vt 0.000000 0.000000
vt 1.000000 0.000000
vt 0.000000 0.000000
vt 1.000000 0.000000
vt 1.000000 1.000000
vt 0.000000 1.000000
vt 1.000000 1.000000
vt 0.000000 1.000000
vt 0.000000 0.000000
vt 1.000000 0.000000
vt 1.000000 1.000000
vt 0.000000 1.000000
vt 0.000000 0.000000
vt 1.000000 0.000000
vt 1.000000 1.000000
vt 0.000000 1.000000
vt 0.000000 0.000000
vt 1.000000 0.000000
vt 1.000000 1.000000
vt 0.000000 1.000000
vt 0.000000 0.000000
vt 1.000000 0.000000
vt 1.000000 1.000000
vt 0.000000 1.000000
vt 0.000000 0.000000
vt 1.000000 0.000000
vt 0.000000 0.000000
vt 1.000000 0.000000
vt 1.000000 1.000000
vt 0.000000 1.000000
vt 1.000000 1.000000
vt 0.000000 1.000000
vt 0.000000 0.000000
vt 1.000000 0.000000
vt 0.000000 0.000000
vt 1.000000 0.000000
vt 1.000000 1.000000
vt 0.000000 1.000000
vt 1.000000 1.000000
vt 0.000000 1.000000
vt 0.000000 0.000000
vt 1.000000 0.000000
vt 1.000000 1.000000
vt 0.000000 1.000000
vt 0.000000 0.000000
vt 1.000000 0.000000
vt 0.000000 0.000000
vt 1.000000 0.000000
vt 1.000000 1.000000
vt 0.000000 1.000000
vt 1.000000 1.000000
vt 0.000000 1.000000
vt 0.000000 0.000000
vt 1.000000 0.000000
vt 0.000000 0.000000
vt 1.000000 0.000000
vt 1.000000 1.000000
vt 0.000000 1.000000
vt 1.000000 1.000000
vt 0.000000 1.000000
vt 0.000000 0.000000
vt 1.000000 0.000000
vt 1.000000 1.000000
vt 0.000000 1.000000
vt 0.000000 0.000000
vt 1.000000 0.000000
vt 1.000000 1.000000
vt 0.000000 1.000000
vt 0.000000 0.000000
vt 1.000000 0.000000
vt 1.000000 1.000000
vt 0.000000 1.000000
vt 0.000000 0.000000
vt 1.000000 0.000000
vt 0.000000 0.000000
vt 1.000000 0.000000
vt 1.000000 1.000000
vt 0.000000 1.000000
vt 1.000000 1.000000
vt 0.000000 1.000000
vt 0.000000 0.000000
vt 1.000000 0.000000
vt 1.000000 1.000000
vt 0.000000 1.000000
vt 0.000000 0.000000
vt 1.000000 0.000000
vt 0.000000 0.000000
vt 1.000000 0.000000
vt 1.000000 1.000000
vt 0.000000 1.000000
vt 1.000000 1.000000
vt 0.000000 1.000000
vt 0.000000 0.000000
vt 1.000000 0.000000
vt 0.000000 0.000000
vt 1.000000 0.000000
vt 1.000000 1.000000
vt 0.000000 1.000000
vt 0.000000 0.000000
vt 1.000000 0.000000
vt 1.000000 1.000000
vt 0.000000 1.000000
vt 1.000000 1.000000
vt 0.000000 1.000000
vt 0.000000 0.000000
vt 1.000000 0.000000
vt 1.000000 1.000000
vt 0.000000 1.000000
vt 0.000000 0.000000
vt 1.000000 0.000000
vt 1.000000 1.000000
vt 0.000000 1.000000
vt 0.000000 0.000000
vn 0.0775 0.8439 -0.5309
vn 0.0024 0.9995 0.0292
vn 0.0738 0.9927 -0.0952
vn 0.8863 0.2619 -0.3818
vn -0.0079 -0.3224 -0.9465
vn -0.1508 -0.5963 -0.7884
vn -0.4563 0.4996 -0.7363
vn -0.3764 -0.6197 -0.6886
vn 0.5575 -0.7891 -0.2578
vn 0.3206 -0.6803 -0.6591
vn -0.7421 0.1015 -0.6625
vn 0.4809 -0.1566 -0.8626
vn -0.4143 0.7699 0.4854
vn 0.0842 0.6152 0.7838
vn -0.0505 0.4231 0.9046
vn -0.2799 0.8880 0.3647
vn 0.0306 0.1366 0.9901
vn -0.4791 0.1247 0.8688
vn -0.1037 -0.8289 0.5496
vn 0.3732 -0.7100 0.5972
vn 0.3854 0.4310 0.8159
vn 0.6550 0.2529 0.7120
vn 0.1311 0.1581 0.9787
vn 0.7910 0.0603 0.6088
vn -0.8056 -0.5675 0.1698
vn -0.7652 -0.0688 -0.6400
vn -0.7531 0.6572 0.0289
vn -0.8488 0.4885 0.2022
vn -0.8121 -0.2660 0.5193
vn -0.0548 -0.9913 0.1199
vn 0.9522 0.3044 0.0255
vn 0.4483 -0.0198 -0.8936
vn 0.9575 -0.1594 0.2401
vn 0.8698 0.4919 0.0387
vn -0.0403 0.9375 0.3457
vn -0.0345 0.9927 0.1155
vn -0.0130 0.3504 -0.9365
vn -0.9307 0.3239 -0.1702
vn -0.8989 0.0872 -0.4294
vn -0.7220 0.0872 0.6864
vn 0.0000 0.0872 0.9962
vn -0.8711 -0.2383 -0.4294
vn -0.7058 -0.1754 0.6864
vn -0.0310 0.0815 0.9962
vn -0.8989 0.0057 -0.4381
vn -0.7220 0.2134 0.6582
vn 0.0000 0.2710 0.9626
vn -0.8797 0.2919 -0.3754
vn -0.7043 0.0293 0.7093
vn -0.8977 -0.0989 -0.4294
vn -0.7246 -0.0626 0.6864
vn -0.8989 0.1989 -0.3904
vn -0.7220 -0.0997 0.6847
vn 0.0000 -0.1826 0.9832
vn -0.8876 -0.1670 -0.4294
vn -0.7177 -0.1176 0.6864
vn -0.0243 0.0837 0.9962
vn -0.8412 0.2941 -0.4538
vn -0.7110 0.2252 0.6662
vn -0.0187 0.0582 0.9981
vn -0.8989 0.2806 -0.3365
vn -0.7220 -0.2493 0.6454
vn -0.8579 0.3505 -0.3758
vn -0.9031 -0.1574 -0.3995
vn -0.7270 0.2761 0.6287
vn -0.9031 0.1298 -0.4093
vn -0.8628 -0.2670 -0.4294
vn -0.8556 0.2892 -0.4294
vn -0.9031 0.0039 -0.4294
usemtl ReefTexture1
s 1
f 16/1/1 12/2/2 18/3/3
f 18/3/3 8/4/4 16/1/1
f 178/5/5 6/6/6 100/7/7
f 100/7/7 118/8/8 178/5/5
f 178/5/5 143/9/9 4/10/10
f 4/10/10 6/6/6 178/5/5
f 2/11/11 16/12/1 20/13/12
f 8/14/4 20/13/12 16/12/1
f 118/8/8 2/11/11 178/5/5
f 20/15/12 8/16/4 143/17/9
f 178/5/5 2/11/11 20/13/12
f 178/5/5 20/13/12 143/9/9
f 140/18/13 17/19/14 11/20/15
f 11/20/15 21/21/16 140/18/13
f 99/22/17 9/23/18 3/24/19
f 5/25/20 142/26/21 99/22/17
f 99/22/17 3/24/19 5/25/20
f 11/20/15 17/19/14 10/27/22
f 10/27/22 141/28/23 11/20/15
f 142/26/21 10/29/22 99/22/17
f 140/30/13 9/23/18 99/22/17
f 99/22/17 17/31/14 140/30/13
f 10/29/22 17/31/14 99/22/17
f 10/27/22 1/32/24 141/28/23
f 14/33/25 13/34/26 6/35/6
f 6/35/6 4/36/10 14/33/25
f 7/37/27 118/38/8 100/39/7
f 100/39/7 19/40/28 7/37/27
f 13/41/26 14/42/25 144/43/29
f 144/43/29 19/40/28 13/41/26
f 100/39/7 13/41/26 19/40/28
f 14/33/25 4/36/10 101/44/30
f 144/45/29 101/46/30 3/24/19
f 3/24/19 9/23/18 144/45/29
f 140/47/13 21/48/16 7/37/27
f 7/37/27 19/40/28 140/47/13
f 144/43/29 9/49/18 140/47/13
f 140/47/13 19/40/28 144/43/29
f 100/7/7 6/6/6 13/50/26
f 7/37/27 2/51/11 118/38/8
f 144/52/29 14/33/25 101/44/30
f 5/53/20 101/44/30 4/54/10
f 5/53/20 3/55/19 101/44/30
f 10/56/22 31/57/31 8/58/4
f 8/58/4 1/59/24 10/56/22
f 31/57/31 36/60/32 4/61/10
f 4/61/10 143/62/9 31/57/31
f 15/63/33 10/64/22 142/65/21
f 5/66/20 4/54/10 36/67/32
f 36/67/32 15/68/33 5/66/20
f 15/69/33 31/57/31 10/56/22
f 36/60/32 31/57/31 15/69/33
f 15/70/33 142/71/21 5/72/20
f 8/58/4 31/57/31 143/62/9
f 38/73/34 12/74/2 30/75/35
f 12/74/2 7/76/27 21/77/16
f 21/77/16 30/75/35 12/74/2
f 37/78/36 123/79/37 2/80/11
f 2/80/11 173/81/38 37/78/36
f 1/82/24 38/73/34 30/75/35
f 1/59/24 8/83/4 38/84/34
f 11/85/15 30/75/35 21/77/16
f 141/28/23 30/86/35 11/20/15
f 37/78/36 7/76/27 12/74/2
f 12/74/2 16/87/1 37/78/36
f 38/73/34 18/88/3 12/74/2
f 38/84/34 8/83/4 18/89/3
f 16/87/1 123/79/37 37/78/36
f 16/12/1 2/11/11 123/90/37
f 1/32/24 30/86/35 141/28/23
f 37/78/36 173/81/38 7/76/27
f 173/91/38 2/51/11 7/37/27
usemtl FanCoralBrown
s off
f 25/92/39 23/93/39 22/94/39
f 22/94/39 24/95/39 25/92/39
f 29/96/40 26/97/40 28/98/40
f 28/98/40 27/99/40 29/96/40
f 35/100/41 33/101/41 32/102/41
f 32/102/41 34/103/41 35/100/41
f 42/104/42 40/105/42 39/106/42
f 39/106/42 41/107/42 42/104/42
f 46/108/43 43/109/43 45/110/43
f 45/110/43 44/111/43 46/108/43
f 58/112/44 56/113/44 55/114/44
f 55/114/44 57/115/44 58/112/44
f 62/116/42 59/117/42 61/118/42
f 61/118/42 60/119/42 62/116/42
f 83/120/43 86/121/43 85/122/43
f 85/122/43 84/123/43 83/120/43
f 111/124/44 113/125/44 110/126/44
f 110/126/44 112/127/44 111/124/44
f 75/128/39 78/129/39 77/130/39
f 77/130/39 76/131/39 75/128/39
f 108/132/40 102/133/40 104/134/40
f 104/134/40 103/135/40 108/132/40
f 139/136/41 134/137/41 136/138/41
f 136/138/41 135/139/41 139/136/41
usemtl FanCoralOrange
f 48/140/45 50/141/45 47/142/45
f 47/142/45 49/143/45 48/140/45
f 63/144/46 66/145/46 65/146/46
f 65/146/46 64/147/46 63/144/46
f 115/148/47 117/149/47 114/150/47
f 114/150/47 116/151/47 115/148/47
f 148/152/48 146/153/48 145/154/48
f 145/154/48 147/155/48 148/152/48
f 172/156/49 170/157/49 169/158/49
f 169/158/49 171/159/49 172/156/49
f 152/160/50 149/161/50 151/162/50
f 151/162/50 150/163/50 152/160/50
f 177/164/51 174/165/51 176/166/51
f 176/166/51 175/167/51 177/164/51
f 154/168/39 160/169/39 153/170/39
f 153/170/39 155/171/39 154/168/39
f 186/172/40 183/173/40 182/174/40
f 182/174/40 184/175/40 186/172/40
f 156/176/39 159/177/39 158/178/39
f 158/178/39 157/179/39 156/176/39
f 185/180/40 179/181/40 181/182/40
f 181/182/40 180/183/40 185/180/40
usemtl FanCorallite
f 51/184/52 54/185/52 53/186/52
f 53/186/52 52/187/52 51/184/52
f 87/188/53 90/189/53 89/190/53
f 89/190/53 88/191/53 87/188/53
f 131/192/54 138/193/54 133/194/54
f 133/194/54 132/195/54 131/192/54
f 70/196/55 67/197/55 69/198/55
f 69/198/55 68/199/55 70/196/55
f 94/200/56 91/201/56 93/202/56
f 93/202/56 92/203/56 94/200/56
f 122/204/57 119/205/57 121/206/57
f 121/206/57 120/207/57 122/204/57
f 74/208/39 71/209/39 73/210/39
f 73/210/39 72/211/39 74/208/39
f 109/212/40 105/213/40 107/214/40
f 107/214/40 106/215/40 109/212/40
f 128/216/41 137/217/41 130/218/41
f 130/218/41 129/219/41 128/216/41
f 82/220/58 79/221/58 81/222/58
f 81/222/58 80/223/58 82/220/58
f 98/224/59 95/225/59 97/226/59
f 97/226/59 96/227/59 98/224/59
f 127/228/60 124/229/60 126/230/60
f 126/230/60 125/231/60 127/228/60
usemtl SeaGrass_1
f 161/232/61 164/233/61 163/234/61
f 163/234/61 162/235/61 161/232/61
f 198/236/62 195/237/62 197/238/62
f 197/238/62 196/239/62 198/236/62
f 165/240/63 168/241/63 167/242/63
f 167/242/63 166/243/63 165/240/63
f 187/244/64 190/245/64 189/246/64
f 189/246/64 188/247/64 187/244/64
f 202/248/65 200/249/65 199/250/65
f 199/250/65 201/251/65 202/248/65
f 194/252/66 192/253/66 191/254/66
f 191/254/66 193/255/66 194/252/66
f 203/256/67 206/257/67 205/258/67
f 205/258/67 204/259/67 203/256/67
f 207/260/68 213/261/68 209/262/68
f 209/262/68 208/263/68 207/260/68
f 214/264/68 210/265/68 212/266/68
f 212/266/68 211/267/68 214/264/68
f 218/268/69 215/269/69 217/270/69
f 217/270/69 216/271/69 218/268/69
f 220/272/39 221/273/39 219/274/39
