# Blender v2.79 (sub 0) OBJ File: 'BeachGrass.blend'
# www.blender.org
mtllib BeachGrass_blend.mtl
o BeachGrassOne200
v -0.083724 0.010118 -0.098431
v -0.000606 0.000066 0.007198
v -0.012169 0.010118 0.141110
v -0.035967 0.255099 -0.112697
v 0.047151 0.245047 -0.007068
v 0.035588 0.255099 0.126844
v -0.125619 0.010118 0.056596
v -0.000619 0.000066 0.007188
v 0.124381 0.010118 0.056596
v -0.125619 0.255099 0.006754
v -0.000619 0.245047 -0.042654
v 0.124381 0.255099 0.006754
v 0.086038 0.010118 -0.070184
v -0.000612 0.000066 0.032567
v -0.134098 0.010118 0.048307
v 0.109662 0.255099 -0.026296
v 0.023011 0.245047 0.076455
v -0.110474 0.255099 0.092195
v -0.112707 0.010118 -0.092493
v -0.000608 0.000066 -0.018332
v 0.030494 0.010118 0.112430
v -0.071852 0.255099 -0.121043
v 0.040248 0.245047 -0.046882
v 0.071349 0.255099 0.083880
vt 0.000000 0.000000
vt 0.500000 0.000000
vt 0.500000 1.000000
vt 0.000000 1.000000
vt 1.000000 0.000000
vt 1.000000 1.000000
vt 0.000000 0.000000
vt 0.500000 0.000000
vt 0.500000 1.000000
vt 0.000000 1.000000
vt 1.000000 0.000000
vt 1.000000 1.000000
vt 0.000000 0.000000
vt 0.500000 0.000000
vt 0.500000 1.000000
vt 0.000000 1.000000
vt 1.000000 0.000000
vt 1.000000 1.000000
vt 0.000000 0.000000
vt 0.500000 0.000000
vt 0.500000 1.000000
vt 0.000000 1.000000
vt 1.000000 0.000000
vt 1.000000 1.000000
vn -0.7637 0.1849 0.6185
vn -0.9389 0.1993 0.2805
vn -0.9778 0.1849 -0.0983
vn 0.3741 0.1849 0.9088
vn 0.0000 0.1993 0.9799
vn -0.3741 0.1849 0.9088
vn -0.7601 0.1849 -0.6229
vn -0.4644 0.1993 -0.8628
vn -0.1013 0.1849 -0.9775
vn -0.5306 0.1849 0.8272
vn -0.8032 0.1993 0.5613
vn -0.9592 0.1849 0.2139
usemtl BeachGrass01
s 1
f 1/1/1 2/2/2 5/3/2
f 5/3/2 4/4/1 1/1/1
f 2/2/2 3/5/3 6/6/3
f 6/6/3 5/3/2 2/2/2
f 7/7/4 8/8/5 11/9/5
f 11/9/5 10/10/4 7/7/4
f 8/8/5 9/11/6 12/12/6
f 12/12/6 11/9/5 8/8/5
f 13/13/7 14/14/8 17/15/8
f 17/15/8 16/16/7 13/13/7
f 14/14/8 15/17/9 18/18/9
f 18/18/9 17/15/8 14/14/8
f 19/19/10 20/20/11 23/21/11
f 23/21/11 22/22/10 19/19/10
f 20/20/11 21/23/12 24/24/12
f 24/24/12 23/21/11 20/20/11
