# Blender v2.79 (sub 0) OBJ File: 'SeaPlant01.blend'
# www.blender.org
mtllib SeaPlant01_blend.mtl
o Untitled.001_SeaPlantOne128
v 1.542533 3.480883 0.866186
v -1.518960 -0.019220 -0.830826
v 1.557108 -0.019220 0.839342
v -0.863306 -0.019220 -1.498025
v 0.886878 3.480883 1.533385
v -0.836721 3.480883 -1.513066
v 0.274038 -0.017902 -1.585464
v -0.250466 3.230755 1.620823
v 0.301976 3.230755 -1.580644
v -1.404142 -0.019221 1.046413
v 1.427714 3.480884 -1.011053
v -1.385975 3.480883 1.070967
v -1.738332 3.480883 0.002407
v 1.761905 -0.019220 0.032953
v -1.738332 -0.019220 0.032953
v 0.860294 -0.019220 1.548426
v 1.761905 3.480883 0.002407
v 1.409547 -0.019220 -1.035607
v -1.533535 3.480883 -0.803983
v -0.278403 -0.017902 1.616003
v -1.523819 1.147481 -0.821878
v 0.004498 3.480883 0.031102
v 0.011786 3.480883 0.002408
v 0.025078 3.480883 0.010159
v -0.854444 1.147481 -1.503039
v 0.878016 2.314182 1.538399
v -0.845583 2.314182 -1.508052
v 0.869155 1.147481 1.543412
v -0.001506 -0.019220 0.025200
v -1.392031 2.314182 1.062782
vt 0.000000 0.000000
vt 1.000000 0.000000
vt 1.000000 0.333333
vt 0.500000 1.000000
vt 0.000000 0.333333
vt 1.000000 0.666667
vt 1.000000 1.000000
vt 0.500000 1.000000
vt 1.000000 1.000000
vt 0.000000 1.000000
vt 0.000000 0.000000
vt 0.000000 0.000000
vt 1.000000 0.000000
vt 1.000000 0.666667
vt 0.000000 1.000000
vt 0.500000 1.000000
vt 0.000000 1.000000
vt 0.000000 0.000000
vt 1.000000 1.000000
vt 1.000000 0.333333
vt 1.000000 0.000000
vt 1.000000 1.000000
vt 1.000000 0.000000
vt 0.000000 1.000000
vt 0.000000 1.000000
vt 0.000000 0.666667
vt 0.500000 0.000000
vt 1.000000 0.000000
vt 0.000000 0.000000
vt 1.000000 1.000000
vn 0.4771 0.0087 -0.8788
vn -0.8703 0.0087 0.4924
vn -0.9854 0.0087 -0.1700
vn -0.5948 0.0087 -0.8038
vn -0.0000 0.0087 1.0000
usemtl SeaPlant01
s off
f 3/1/1 2/2/1 21/3/1
f 21/3/1 22/4/1 3/1/1
f 25/5/2 26/6/2 5/7/2
f 5/7/2 24/8/2 25/5/2
f 8/9/3 9/10/3 7/11/3
f 18/12/4 10/13/4 30/14/4
f 30/14/4 11/15/4 18/12/4
f 23/16/5 13/17/5 15/18/5
f 15/18/5 17/19/5 23/16/5
f 25/5/2 28/20/2 26/6/2
f 15/18/5 14/21/5 17/19/5
f 22/4/1 21/3/1 19/22/1
f 8/9/3 7/11/3 20/23/3
f 22/4/1 1/24/1 3/1/1
f 24/8/2 6/25/2 27/26/2
f 27/26/2 25/5/2 24/8/2
f 29/27/2 16/28/2 28/20/2
f 28/20/2 25/5/2 29/27/2
f 4/29/2 29/27/2 25/5/2
f 11/15/4 30/14/4 12/30/4
o Untitled_SeaPlantOne256
v -0.863306 -0.019220 -1.498025
v -0.001506 -0.019220 0.025200
v 0.860294 -0.019220 1.548426
v -0.854444 1.147481 -1.503039
v 0.007355 1.147481 0.020187
v 0.869155 1.147481 1.543412
v -0.845583 2.314182 -1.508052
v 0.016217 2.314182 0.015173
v 0.878016 2.314182 1.538399
v -0.836721 3.480883 -1.513066
v 0.025078 3.480883 0.010159
v 0.886878 3.480883 1.533385
v -1.738332 -0.019220 0.032953
v 0.011787 -0.019220 0.032952
v 1.761905 -0.019220 0.032953
v -1.738332 1.147481 0.022771
v 0.011786 1.147481 0.022771
v 1.761905 1.147481 0.022771
v -1.738333 2.314182 0.012589
v 0.011786 2.314182 0.012589
v 1.761904 2.314182 0.012589
v -1.738332 3.480883 0.002407
v 0.011786 3.480883 0.002408
v 1.761905 3.480883 0.002407
v 1.409547 -0.019220 -1.035607
v 0.002702 -0.019220 0.005403
v -1.404142 -0.019221 1.046413
v 1.415603 1.147481 -1.027423
v 0.008758 1.147481 0.013587
v -1.398086 1.147481 1.054597
v 1.421659 2.314182 -1.019238
v 0.014814 2.314182 0.021772
v -1.392031 2.314182 1.062782
v 1.427714 3.480884 -1.011053
v 0.020870 3.480883 0.029957
v -1.385975 3.480883 1.070967
v 1.557108 -0.019220 0.839342
v 0.019074 -0.019220 0.004258
v -1.518960 -0.019220 -0.830826
v 1.552249 1.147481 0.848290
v 0.014215 1.147481 0.013206
v -1.523819 1.147481 -0.821878
v 1.547391 2.314182 0.857238
v 0.009357 2.314182 0.022154
v -1.528677 2.314182 -0.812930
v 1.542533 3.480883 0.866186
v 0.004498 3.480883 0.031102
v -1.533535 3.480883 -0.803983
v 0.274038 -0.017902 -1.585464
v -0.002182 -0.017903 0.015269
v -0.278403 -0.017902 1.616003
v 0.283351 1.064984 -1.583857
v 0.007130 1.064984 0.016876
v -0.269091 1.064984 1.617610
v 0.292663 2.147869 -1.582250
v 0.016442 2.147869 0.018483
v -0.259778 2.147869 1.619216
v 0.301976 3.230755 -1.580644
v 0.025755 3.230755 0.020090
v -0.250466 3.230755 1.620823
vt 0.000000 0.000000
vt 0.500000 0.000000
vt 0.500000 0.333333
vt 0.000000 0.333333
vt 1.000000 0.000000
vt 1.000000 0.333333
vt 0.500000 0.666667
vt 0.000000 0.666667
vt 1.000000 0.666667
vt 0.500000 1.000000
vt 0.000000 1.000000
vt 1.000000 1.000000
vt 0.000000 0.000000
vt 0.500000 0.000000
vt 0.500000 0.333333
vt 0.000000 0.333333
vt 1.000000 0.000000
vt 1.000000 0.333333
vt 0.500000 0.666667
vt 0.000000 0.666667
vt 1.000000 0.666667
vt 0.500000 1.000000
vt 0.000000 1.000000
vt 1.000000 1.000000
vt 0.000000 0.000000
vt 0.500000 0.000000
vt 0.500000 0.333333
vt 0.000000 0.333333
vt 1.000000 0.000000
vt 1.000000 0.333333
vt 0.500000 0.666667
vt 0.000000 0.666667
vt 1.000000 0.666667
vt 0.500000 1.000000
vt 0.000000 1.000000
vt 1.000000 1.000000
vt 0.000000 0.000000
vt 0.500000 0.000000
vt 0.500000 0.333333
vt 0.000000 0.333333
vt 1.000000 0.000000
vt 1.000000 0.333333
vt 0.500000 0.666667
vt 0.000000 0.666667
vt 1.000000 0.666667
vt 0.500000 1.000000
vt 0.000000 1.000000
vt 1.000000 1.000000
vt 0.000000 0.000000
vt 0.500000 0.000000
vt 0.500000 0.333333
vt 0.000000 0.333333
vt 1.000000 0.000000
vt 1.000000 0.333333
vt 0.500000 0.666667
vt 0.000000 0.666667
vt 1.000000 0.666667
vt 0.500000 1.000000
vt 0.000000 1.000000
vt 1.000000 1.000000
vn -0.8703 0.0087 0.4924
vn 0.0000 0.0087 1.0000
vn -0.5948 0.0087 -0.8038
vn 0.4771 0.0087 -0.8788
vn -0.9854 0.0087 -0.1700
usemtl SeaPlant01
s off
f 31/31/6 32/32/6 35/33/6
f 35/33/6 34/34/6 31/31/6
f 32/32/6 33/35/6 36/36/6
f 36/36/6 35/33/6 32/32/6
f 34/34/6 35/33/6 38/37/6
f 38/37/6 37/38/6 34/34/6
f 35/33/6 36/36/6 39/39/6
f 39/39/6 38/37/6 35/33/6
f 37/38/6 38/37/6 41/40/6
f 41/40/6 40/41/6 37/38/6
f 38/37/6 39/39/6 42/42/6
f 42/42/6 41/40/6 38/37/6
f 43/43/7 44/44/7 47/45/7
f 47/45/7 46/46/7 43/43/7
f 44/44/7 45/47/7 48/48/7
f 48/48/7 47/45/7 44/44/7
f 46/46/7 47/45/7 50/49/7
f 50/49/7 49/50/7 46/46/7
f 47/45/7 48/48/7 51/51/7
f 51/51/7 50/49/7 47/45/7
f 49/50/7 50/49/7 53/52/7
f 53/52/7 52/53/7 49/50/7
f 50/49/7 51/51/7 54/54/7
f 54/54/7 53/52/7 50/49/7
f 55/55/8 56/56/8 59/57/8
f 59/57/8 58/58/8 55/55/8
f 56/56/8 57/59/8 60/60/8
f 60/60/8 59/57/8 56/56/8
f 58/58/8 59/57/8 62/61/8
f 62/61/8 61/62/8 58/58/8
f 59/57/8 60/60/8 63/63/8
f 63/63/8 62/61/8 59/57/8
f 61/62/8 62/61/8 65/64/8
f 65/64/8 64/65/8 61/62/8
f 62/61/8 63/63/8 66/66/8
f 66/66/8 65/64/8 62/61/8
f 67/67/9 68/68/9 71/69/9
f 71/69/9 70/70/9 67/67/9
f 68/68/9 69/71/9 72/72/9
f 72/72/9 71/69/9 68/68/9
f 70/70/9 71/69/9 74/73/9
f 74/73/9 73/74/9 70/70/9
f 71/69/9 72/72/9 75/75/9
f 75/75/9 74/73/9 71/69/9
f 73/74/9 74/73/9 77/76/9
f 77/76/9 76/77/9 73/74/9
f 74/73/9 75/75/9 78/78/9
f 78/78/9 77/76/9 74/73/9
f 79/79/10 80/80/10 83/81/10
f 83/81/10 82/82/10 79/79/10
f 80/80/10 81/83/10 84/84/10
f 84/84/10 83/81/10 80/80/10
f 82/82/10 83/81/10 86/85/10
f 86/85/10 85/86/10 82/82/10
f 83/81/10 84/84/10 87/87/10
f 87/87/10 86/85/10 83/81/10
f 85/86/10 86/85/10 89/88/10
f 89/88/10 88/89/10 85/86/10
f 86/85/10 87/87/10 90/90/10
f 90/90/10 89/88/10 86/85/10
