# Blender v2.79 (sub 0) OBJ File: 'CageBed.blend'
# www.blender.org
mtllib CageBed_blend.mtl
o Cylinder
v 1.100000 2.106060 -1.000000
v 1.100000 2.106060 1.000000
v 0.900000 2.106060 1.000000
v 0.900000 2.106060 -1.000000
v 1.100000 2.306060 -0.999999
v 1.100000 2.306060 1.000000
v 0.900000 2.306060 1.000000
v 0.900000 2.306060 -1.000000
v 1.100000 2.106060 -0.833333
v 1.100000 2.106060 0.833333
v 0.900000 2.106060 0.833333
v 0.900000 2.106060 -0.833334
v 1.100000 2.306060 -0.833332
v 1.100000 2.306060 0.833335
v 0.900000 2.306060 0.833333
v 0.900000 2.306060 -0.833333
v -0.900000 2.106060 1.000000
v -0.900000 2.106060 -1.000000
v -0.900000 2.306060 1.000000
v -0.900000 2.306060 -1.000000
v -0.900000 2.106060 0.833333
v -0.900000 2.106060 -0.833334
v -0.900000 2.306060 0.833333
v -0.900000 2.306060 -0.833333
v -1.100000 2.106060 1.000000
v -1.100000 2.106060 -1.000000
v -1.100000 2.306060 1.000000
v -1.100000 2.306060 -1.000000
v -1.100000 2.106060 0.833333
v -1.100000 2.106060 -0.833334
v -1.100000 2.306060 0.833333
v -1.100000 2.306060 -0.833333
v 1.100000 0.063656 -1.000000
v 1.100000 0.063656 1.000000
v 0.900000 0.063656 1.000000
v 0.900000 0.063656 -1.000000
v 1.100000 0.063656 -0.833333
v 1.100000 0.063656 0.833333
v 0.900000 0.063656 0.833333
v 0.900000 0.063656 -0.833334
v -0.900000 0.063656 1.000000
v -0.900000 0.063656 -1.000000
v -0.900000 0.063656 0.833333
v -0.900000 0.063656 -0.833334
v -1.100000 0.063656 1.000000
v -1.100000 0.063656 -1.000000
v -1.100000 0.063656 0.833333
v -1.100000 0.063656 -0.833334
v -1.223464 -0.100000 1.112240
v -1.223464 -0.100000 -1.112240
v 1.223464 -0.100000 -1.112240
v 1.223464 -0.100000 1.112240
v -1.223464 0.100000 1.112240
v -1.223464 0.100000 -1.112240
v 1.223464 0.100000 -1.112240
v 1.223464 0.100000 1.112240
v -0.913866 2.234181 -0.641633
v 0.913866 2.234181 -0.641633
v -0.913866 2.190880 -0.566633
v 0.913866 2.190880 -0.566633
v -0.913866 2.277482 -0.566633
v 0.913866 2.277483 -0.566633
v -0.913866 2.234181 -0.265545
v 0.913866 2.234181 -0.265545
v -0.913866 2.190880 -0.190545
v 0.913866 2.190880 -0.190545
v -0.913866 2.277482 -0.190545
v 0.913866 2.277483 -0.190545
v -0.913866 2.234181 0.641633
v 0.913866 2.234181 0.641633
v -0.913866 2.190880 0.566633
v 0.913866 2.190880 0.566633
v -0.913866 2.277482 0.566633
v 0.913866 2.277483 0.566633
v -0.913866 2.234181 0.265545
v 0.913866 2.234181 0.265545
v -0.913866 2.190880 0.190545
v 0.913866 2.190880 0.190545
v -0.913866 2.277482 0.190545
v 0.913866 2.277483 0.190545
v -0.955209 0.071849 -0.624688
v -0.955209 2.127768 -0.624688
v -0.913291 0.071849 -0.552084
v -0.913291 2.127768 -0.552084
v -0.997127 0.071849 -0.552084
v -0.997127 2.127768 -0.552084
v -0.955209 0.071849 -0.363596
v -0.955209 2.127768 -0.363596
v -0.913291 0.071849 -0.290992
v -0.913291 2.127768 -0.290992
v -0.997127 0.071849 -0.290992
v -0.997127 2.127768 -0.290992
v -0.955209 0.071849 -0.151827
v -0.955209 2.127768 -0.151827
v -0.913291 0.071849 -0.079223
v -0.913291 2.127768 -0.079223
v -0.997127 0.071849 -0.079223
v -0.997127 2.127768 -0.079223
v -0.650265 0.071849 -0.984418
v -0.650265 2.127768 -0.984418
v -0.608348 0.071849 -0.911814
v -0.608348 2.127768 -0.911814
v -0.692183 0.071849 -0.911814
v -0.692183 2.127768 -0.911814
v 0.955209 0.071849 -0.624688
v 0.955209 2.127768 -0.624688
v 0.913291 0.071849 -0.552084
v 0.913291 2.127768 -0.552084
v 0.997127 0.071849 -0.552084
v 0.997127 2.127768 -0.552084
v 0.955209 0.071849 -0.363596
v 0.955209 2.127768 -0.363596
v 0.913291 0.071849 -0.290992
v 0.913291 2.127768 -0.290992
v 0.997127 0.071849 -0.290992
v 0.997127 2.127768 -0.290992
v 0.955209 0.071849 -0.151827
v 0.955209 2.127768 -0.151827
v 0.913291 0.071849 -0.079223
v 0.913291 2.127768 -0.079223
v 0.997127 0.071849 -0.079223
v 0.997127 2.127768 -0.079223
v 0.650265 0.071849 -0.984418
v 0.650265 2.127768 -0.984418
v 0.608348 0.071849 -0.911814
v 0.608348 2.127768 -0.911814
v 0.692183 0.071849 -0.911814
v 0.692183 2.127768 -0.911814
v -0.955209 0.071849 0.624688
v -0.955209 2.127768 0.624688
v -0.913291 0.071849 0.552084
v -0.913291 2.127768 0.552084
v -0.997127 0.071849 0.552084
v -0.997127 2.127768 0.552084
v -0.955209 0.071849 0.363596
v -0.955209 2.127768 0.363596
v -0.913291 0.071849 0.290992
v -0.913291 2.127768 0.290992
v -0.997127 0.071849 0.290992
v -0.997127 2.127768 0.290992
v -0.955209 0.071849 0.151827
v -0.955209 2.127768 0.151827
v -0.913291 0.071849 0.079223
v -0.913291 2.127768 0.079223
v -0.997127 0.071849 0.079223
v -0.997127 2.127768 0.079223
v -0.650265 0.071849 0.984418
v -0.650265 2.127768 0.984418
v -0.608348 0.071849 0.911814
v -0.608348 2.127768 0.911814
v -0.692183 0.071849 0.911814
v -0.692183 2.127768 0.911814
v -0.418449 0.071849 0.984418
v -0.418449 2.127768 0.984418
v -0.376532 0.071849 0.911814
v -0.376532 2.127768 0.911814
v -0.460367 0.071849 0.911814
v -0.460367 2.127768 0.911814
v -0.129501 0.071849 0.984418
v -0.129501 2.127768 0.984418
v -0.087583 0.071849 0.911814
v -0.087583 2.127768 0.911814
v -0.171419 0.071849 0.911814
v -0.171419 2.127768 0.911814
v 0.955209 0.071849 0.624688
v 0.955209 2.127768 0.624688
v 0.913291 0.071849 0.552084
v 0.913291 2.127768 0.552084
v 0.997127 0.071849 0.552084
v 0.997127 2.127768 0.552084
v 0.955209 0.071849 0.363596
v 0.955209 2.127768 0.363596
v 0.913291 0.071849 0.290992
v 0.913291 2.127768 0.290992
v 0.997127 0.071849 0.290992
v 0.997127 2.127768 0.290992
v 0.955209 0.071849 0.151827
v 0.955209 2.127768 0.151827
v 0.913291 0.071849 0.079223
v 0.913291 2.127768 0.079223
v 0.997127 0.071849 0.079223
v 0.997127 2.127768 0.079223
v 0.650265 0.071849 0.984418
v 0.650265 2.127768 0.984418
v 0.608348 0.071849 0.911814
v 0.608348 2.127768 0.911814
v 0.692183 0.071849 0.911814
v 0.692183 2.127768 0.911814
v 0.418449 0.071849 0.984418
v 0.418449 2.127768 0.984418
v 0.376532 0.071849 0.911814
v 0.376532 2.127768 0.911814
v 0.460367 0.071849 0.911814
v 0.460367 2.127768 0.911814
v 0.129501 0.071849 0.984418
v 0.129501 2.127768 0.984418
v 0.087583 0.071849 0.911814
v 0.087583 2.127768 0.911814
v 0.171419 0.071849 0.911814
v 0.171419 2.127768 0.911814
vt -0.176710 0.526917
vt -0.232901 0.526917
vt -0.232901 0.255513
vt -0.176710 0.255513
vt 0.509239 0.115321
vt 0.509594 0.147664
vt 0.482642 0.147960
vt 0.482287 0.115616
vt 0.826198 0.417336
vt 0.823942 0.439705
vt 0.653452 0.425141
vt 0.655707 0.402772
vt 0.482287 0.413799
vt 0.484542 0.391431
vt 0.973829 0.440474
vt 0.975586 0.462179
vt 0.810524 0.481953
vt 0.808767 0.460249
vt 0.814355 0.072534
vt 0.812617 0.094010
vt 0.648399 0.086382
vt 0.650136 0.064907
vt -0.109280 0.526917
vt -0.109280 0.255513
vt 0.999615 0.414230
vt 0.826051 0.394537
vt 0.999468 0.391431
vt 0.753024 0.242253
vt 0.716272 0.240838
vt 0.717451 0.210212
vt 0.754203 0.211626
vt 0.755265 0.115321
vt 0.755620 0.147664
vt 0.977990 0.083264
vt 0.976252 0.104739
vt 0.997359 0.436599
vt 0.482287 0.092777
vt 0.484024 0.071302
vt 0.505829 0.179331
vt 0.751855 0.179332
vt 0.520218 0.264908
vt 0.519039 0.295535
vt 0.482287 0.294120
vt 0.483466 0.263494
vt 0.729583 0.358425
vt 0.756447 0.358130
vt 0.756800 0.390366
vt 0.729937 0.390661
vt 0.753024 0.295535
vt 0.749417 0.325646
vt 0.515432 0.325646
vt 0.482287 0.240838
vt 0.483466 0.210212
vt 0.975586 0.483725
vt 0.810524 0.503500
vt 0.754203 0.264908
vt 0.721058 0.180101
vt 0.487072 0.180101
vt 0.648399 0.108157
vt 0.482287 0.114551
vt 0.655855 0.041583
vt 0.656838 0.019056
vt 0.828131 0.028999
vt 0.827148 0.051526
vt 0.646222 0.487593
vt 0.646222 0.509139
vt 0.482287 0.506779
vt 0.482287 0.485233
vt -0.463711 0.994733
vt -0.531140 0.994734
vt -0.531140 0.723328
vt -0.463711 0.723328
vt 0.999540 0.041610
vt 0.998558 0.064138
vt -0.109281 0.250337
vt -0.165472 0.250337
vt -0.165472 -0.021068
vt -0.109281 -0.021068
vt 0.653648 0.064138
vt 0.482287 0.045466
vt 0.484494 0.022912
vt 0.484368 0.358425
vt 0.482287 0.326415
vt 0.727502 0.326415
vt 0.484722 0.390661
vt 0.485477 0.000385
vt -0.407520 0.994734
vt -0.407519 0.723328
vt -0.587332 0.994734
vt -0.587332 0.723328
vt -0.654761 0.994734
vt -0.654761 0.723328
vt -0.232901 0.250337
vt -0.232901 -0.021067
vt -0.289092 0.250337
vt -0.289092 -0.021067
vt -0.350057 0.994734
vt -0.406248 0.994734
vt -0.406248 0.723329
vt -0.350058 0.723328
vt -0.226437 0.994734
vt -0.282628 0.994734
vt -0.282628 0.723328
vt -0.226437 0.723328
vt -0.300330 0.526917
vt -0.300330 0.255513
vt -0.159008 0.994734
vt -0.159008 0.723328
vt -0.356521 0.526917
vt -0.356521 0.255513
vt -0.356521 0.250337
vt -0.356521 -0.021067
vt 0.050871 0.000385
vt 0.424663 0.000385
vt 0.427847 0.049176
vt 0.054055 0.049176
vt 0.481517 0.045671
vt 0.481517 0.456843
vt 0.427847 0.460347
vt 0.431031 0.509139
vt 0.057239 0.509139
vt 0.054055 0.460347
vt 0.000385 0.463852
vt 0.000385 0.052681
vt 0.499829 0.509908
vt 0.499829 0.963948
vt 0.000385 0.963948
vt 0.000385 0.509908
vt 0.503454 0.763718
vt 0.679030 0.763718
vt 0.680385 0.786655
vt 0.504809 0.786655
vt 0.500598 0.717864
vt 0.676174 0.717864
vt 0.677674 0.740782
vt 0.502099 0.740782
vt 0.503454 0.694158
vt 0.679030 0.694158
vt 0.680385 0.717095
vt 0.504809 0.717095
vt 0.500598 0.648304
vt 0.676174 0.648304
vt 0.677675 0.671222
vt 0.502099 0.671222
vt 0.505503 0.601981
vt 0.507551 0.579106
vt 0.684056 0.579106
vt 0.682008 0.601981
vt 0.500598 0.647535
vt 0.503454 0.624856
vt 0.679960 0.624856
vt 0.677104 0.647535
vt 0.505503 0.532783
vt 0.507551 0.509908
vt 0.684056 0.509908
vt 0.682008 0.532783
vt 0.500598 0.578337
vt 0.503454 0.555658
vt 0.679960 0.555658
vt 0.677104 0.578337
vt 0.329366 -0.437450
vt 0.329366 -0.139931
vt 0.274917 -0.139931
vt 0.274917 -0.437450
vt 0.438264 -0.437450
vt 0.438264 -0.139930
vt 0.383815 -0.139931
vt 0.383815 -0.437450
vt 1.614509 0.187767
vt 1.614509 0.456957
vt 1.560060 0.456957
vt 1.560060 0.187767
vt 1.723407 0.187767
vt 1.723407 0.456957
vt 1.668958 0.456957
vt 1.668958 0.187767
vt 1.336670 0.070381
vt 1.336670 0.339571
vt 1.282221 0.339571
vt 1.282221 0.070381
vt 1.445568 0.070381
vt 1.445568 0.339571
vt 1.391119 0.339571
vt 1.391119 0.070381
vt 0.565231 -0.459718
vt 0.565231 -0.162198
vt 0.510782 -0.162198
vt 0.510782 -0.459718
vt 0.674129 -0.459718
vt 0.674129 -0.162198
vt 0.619680 -0.162198
vt 0.619680 -0.459718
vt 0.666596 1.041891
vt 0.721045 1.041890
vt 0.721045 1.266053
vt 0.666596 1.266053
vt 0.557698 1.041891
vt 0.612147 1.041891
vt 0.612147 1.266053
vt 0.557698 1.266053
vt 0.666596 1.270299
vt 0.721045 1.270299
vt 0.721045 1.494462
vt 0.666596 1.494462
vt 0.557698 1.270299
vt 0.612147 1.270299
vt 0.612147 1.494462
vt 0.557698 1.494462
vt 1.225324 0.348706
vt 1.279773 0.348706
vt 1.279773 0.617895
vt 1.225324 0.617896
vt 1.116426 0.348706
vt 1.170875 0.348706
vt 1.170875 0.617896
vt 1.116426 0.617896
vt 0.785475 -0.459718
vt 0.839925 -0.459718
vt 0.839925 -0.162198
vt 0.785475 -0.162198
vt 0.676577 -0.459718
vt 0.731027 -0.459718
vt 0.731026 -0.162198
vt 0.676577 -0.162198
vt 0.335005 1.041890
vt 0.389454 1.041890
vt 0.389454 1.266053
vt 0.335005 1.266053
vt 0.226107 1.041890
vt 0.280555 1.041890
vt 0.280556 1.266053
vt 0.226107 1.266053
vt 0.666596 1.498708
vt 0.721045 1.498708
vt 0.721045 1.722872
vt 0.666596 1.722872
vt 0.557698 1.498708
vt 0.612147 1.498708
vt 0.612147 1.722872
vt 0.557698 1.722872
vt 0.500800 1.498708
vt 0.555250 1.498708
vt 0.555250 1.722871
vt 0.500800 1.722871
vt 0.391902 1.498708
vt 0.446351 1.498708
vt 0.446351 1.722871
vt 0.391902 1.722871
vt 0.335005 1.498708
vt 0.389454 1.498708
vt 0.389454 1.722870
vt 0.335005 1.722871
vt 0.226107 1.498708
vt 0.280555 1.498708
vt 0.280556 1.722871
vt 0.226107 1.722872
vt 0.335005 1.270299
vt 0.389454 1.270299
vt 0.389454 1.494461
vt 0.335005 1.494462
vt 0.226107 1.270300
vt 0.280555 1.270299
vt 0.280556 1.494462
vt 0.226107 1.494462
vt 0.500800 1.041890
vt 0.555250 1.041890
vt 0.555250 1.266053
vt 0.500800 1.266053
vt 0.391902 1.041891
vt 0.446351 1.041890
vt 0.446351 1.266053
vt 0.391902 1.266053
vt 0.163570 -0.437451
vt 0.163570 -0.139931
vt 0.109121 -0.139930
vt 0.109121 -0.437451
vt 0.272468 -0.437451
vt 0.272468 -0.139931
vt 0.218019 -0.139931
vt 0.218019 -0.437451
vt 1.336671 0.622995
vt 1.336671 0.892185
vt 1.282221 0.892185
vt 1.282221 0.622995
vt 1.445569 0.622995
vt 1.445569 0.892185
vt 1.391119 0.892185
vt 1.391119 0.622995
vt 1.336671 0.348706
vt 1.336670 0.617896
vt 1.282221 0.617896
vt 1.282221 0.348706
vt 1.445569 0.348706
vt 1.445569 0.617896
vt 1.391119 0.617896
vt 1.391119 0.348706
vt 1.225324 0.622995
vt 1.225324 0.892185
vt 1.170875 0.892185
vt 1.170875 0.622995
vt 1.116426 0.892185
vt 1.116426 0.622995
vt 1.279773 0.622995
vt 1.279773 0.892185
vt 1.225323 0.070381
vt 1.225323 0.339571
vt 1.170874 0.339571
vt 1.170874 0.070381
vt 1.116425 0.339571
vt 1.116425 0.070381
vt 1.279772 0.070381
vt 1.279772 0.339571
vt 0.500800 1.270299
vt 0.500800 1.494462
vt 0.446351 1.494462
vt 0.446351 1.270299
vt 0.391902 1.494462
vt 0.391902 1.270299
vt 0.555250 1.270299
vt 0.555250 1.494462
vn 1.0000 0.0000 0.0000
vn 0.0000 1.0000 0.0000
vn -0.0000 -0.0000 1.0000
vn 0.0000 -1.0000 0.0000
vn 0.0000 0.0000 -1.0000
vn -1.0000 0.0000 0.0000
vn 0.0000 -0.8660 -0.5000
vn -0.0000 0.8660 -0.5000
vn 0.0000 -0.8660 0.5000
vn -0.0000 0.8660 0.5000
vn 0.8660 0.0000 -0.5000
vn -0.8660 0.0000 -0.5000
vn 0.8660 0.0000 0.5000
vn -0.8660 0.0000 0.5000
usemtl Material
s off
f 10/1/1 2/2/1 34/3/1 38/4/1
f 14/5/2 15/6/2 7/7/2 6/8/2
f 10/9/1 14/10/1 6/11/1 2/12/1
f 2/12/3 6/11/3 7/13/3 3/14/3
f 11/15/4 3/16/4 17/17/4 21/18/4
f 5/19/5 1/20/5 4/21/5 8/22/5
f 11/23/5 10/1/5 38/4/5 39/24/5
f 9/25/4 10/9/4 11/26/4 12/27/4
f 5/28/2 8/29/2 16/30/2 13/31/2
f 13/32/2 16/33/2 15/6/2 14/5/2
f 1/20/1 5/19/1 13/34/1 9/35/1
f 9/25/1 13/36/1 14/10/1 10/9/1
f 8/22/5 4/21/5 18/37/5 20/38/5
f 11/39/6 15/6/6 16/33/6 12/40/6
f 19/41/2 23/42/2 31/43/2 27/44/2
f 24/45/2 20/46/2 28/47/2 32/48/2
f 15/49/5 11/50/5 21/51/5 23/42/5
f 16/30/2 8/29/2 20/52/2 24/53/2
f 3/16/3 7/54/3 19/55/3 17/17/3
f 7/56/2 15/49/2 23/42/2 19/41/2
f 12/57/3 16/30/3 24/53/3 22/58/3
f 4/21/4 12/59/4 22/60/4 18/37/4
f 30/61/6 32/62/6 28/63/6 26/64/6
f 25/65/6 27/66/6 31/67/6 29/68/6
f 17/69/3 25/70/3 45/71/3 41/72/3
f 20/73/5 18/74/5 26/64/5 28/63/5
f 12/75/6 4/76/6 36/77/6 40/78/6
f 17/17/3 19/55/3 27/66/3 25/65/3
f 22/79/4 21/80/4 29/81/4 30/61/4
f 24/45/1 23/82/1 21/83/1 22/84/1
f 32/48/2 31/85/2 23/82/2 24/45/2
f 31/86/6 32/62/6 30/61/6 29/81/6
f 21/87/1 17/69/1 41/72/1 43/88/1
f 25/70/6 29/89/6 47/90/6 45/71/6
f 29/89/5 21/91/5 43/92/5 47/90/5
f 4/76/5 1/93/5 33/94/5 36/77/5
f 1/93/1 9/95/1 37/96/1 33/94/1
f 18/97/1 22/98/1 44/99/1 42/100/1
f 30/101/6 26/102/6 46/103/6 48/104/6
f 2/2/3 3/105/3 35/106/3 34/3/3
f 22/107/3 30/101/3 48/104/3 44/108/3
f 3/105/6 11/109/6 39/110/6 35/106/6
f 26/102/5 18/97/5 42/100/5 46/103/5
f 9/95/3 12/111/3 40/112/3 37/96/3
f 53/113/6 54/114/6 50/115/6 49/116/6
f 54/117/5 55/118/5 51/119/5 50/115/5
f 55/120/1 56/121/1 52/122/1 51/119/1
f 56/123/3 53/124/3 49/116/3 52/122/3
f 49/116/4 50/115/4 51/119/4 52/122/4
f 56/125/2 55/126/2 54/127/2 53/128/2
f 57/129/7 58/130/7 60/131/7 59/132/7
f 59/133/3 60/134/3 62/135/3 61/136/3
f 61/136/8 62/135/8 58/130/8 57/129/8
f 63/137/7 64/138/7 66/139/7 65/140/7
f 65/141/3 66/142/3 68/143/3 67/144/3
f 67/144/8 68/143/8 64/138/8 63/137/8
f 69/145/9 71/146/9 72/147/9 70/148/9
f 71/149/5 73/150/5 74/151/5 72/152/5
f 73/150/10 69/145/10 70/148/10 74/151/10
f 75/153/9 77/154/9 78/155/9 76/156/9
f 77/157/5 79/158/5 80/159/5 78/160/5
f 79/158/10 75/153/10 76/156/10 80/159/10
f 81/161/11 82/162/11 84/163/11 83/164/11
f 83/165/3 84/166/3 86/167/3 85/168/3
f 85/168/12 86/167/12 82/162/12 81/161/12
f 87/169/11 88/170/11 90/171/11 89/172/11
f 89/173/3 90/174/3 92/175/3 91/176/3
f 91/176/12 92/175/12 88/170/12 87/169/12
f 93/177/11 94/178/11 96/179/11 95/180/11
f 95/181/3 96/182/3 98/183/3 97/184/3
f 97/184/12 98/183/12 94/178/12 93/177/12
f 99/185/11 100/186/11 102/187/11 101/188/11
f 101/189/3 102/190/3 104/191/3 103/192/3
f 103/192/12 104/191/12 100/186/12 99/185/12
f 105/193/12 107/194/12 108/195/12 106/196/12
f 107/197/3 109/198/3 110/199/3 108/200/3
f 109/198/11 105/193/11 106/196/11 110/199/11
f 111/201/12 113/202/12 114/203/12 112/204/12
f 113/205/3 115/206/3 116/207/3 114/208/3
f 115/206/11 111/201/11 112/204/11 116/207/11
f 117/209/12 119/210/12 120/211/12 118/212/12
f 119/213/3 121/214/3 122/215/3 120/216/3
f 121/214/11 117/209/11 118/212/11 122/215/11
f 123/217/12 125/218/12 126/219/12 124/220/12
f 125/221/3 127/222/3 128/223/3 126/224/3
f 127/222/11 123/217/11 124/220/11 128/223/11
f 129/225/13 131/226/13 132/227/13 130/228/13
f 131/229/5 133/230/5 134/231/5 132/232/5
f 133/230/14 129/225/14 130/228/14 134/231/14
f 135/233/13 137/234/13 138/235/13 136/236/13
f 137/237/5 139/238/5 140/239/5 138/240/5
f 139/238/14 135/233/14 136/236/14 140/239/14
f 141/241/13 143/242/13 144/243/13 142/244/13
f 143/245/5 145/246/5 146/247/5 144/248/5
f 145/246/14 141/241/14 142/244/14 146/247/14
f 147/249/13 149/250/13 150/251/13 148/252/13
f 149/253/5 151/254/5 152/255/5 150/256/5
f 151/254/14 147/249/14 148/252/14 152/255/14
f 153/257/13 155/258/13 156/259/13 154/260/13
f 155/261/5 157/262/5 158/263/5 156/264/5
f 157/262/14 153/257/14 154/260/14 158/263/14
f 159/265/13 161/266/13 162/267/13 160/268/13
f 161/269/5 163/270/5 164/271/5 162/272/5
f 163/270/14 159/265/14 160/268/14 164/271/14
f 165/273/14 166/274/14 168/275/14 167/276/14
f 167/277/5 168/278/5 170/279/5 169/280/5
f 169/280/13 170/279/13 166/274/13 165/273/13
f 171/281/14 172/282/14 174/283/14 173/284/14
f 173/285/5 174/286/5 176/287/5 175/288/5
f 175/288/13 176/287/13 172/282/13 171/281/13
f 177/289/14 178/290/14 180/291/14 179/292/14
f 179/293/5 180/294/5 182/295/5 181/296/5
f 181/296/13 182/295/13 178/290/13 177/289/13
f 183/297/14 184/298/14 186/299/14 185/300/14
f 185/300/5 186/299/5 188/301/5 187/302/5
f 187/303/13 188/304/13 184/298/13 183/297/13
f 189/305/14 190/306/14 192/307/14 191/308/14
f 191/308/5 192/307/5 194/309/5 193/310/5
f 193/311/13 194/312/13 190/306/13 189/305/13
f 195/313/14 196/314/14 198/315/14 197/316/14
f 197/316/5 198/315/5 200/317/5 199/318/5
f 199/319/13 200/320/13 196/314/13 195/313/13
